<svg width="280" height="280" viewBox="0 0 280 280" fill="none" xmlns="http://www.w3.org/2000/svg">
<path d="M17.5934 226.213C50.12 217.253 82.6467 208.247 115.173 199.287C115.407 199.24 115.313 198.867 115.08 198.96C82.5534 207.92 50.0267 216.927 17.5 225.887C17.2667 225.933 17.36 226.26 17.5934 226.213Z" fill="white"/>
<path d="M128.52 200.173C161.42 206.427 193.9 214.64 226.287 223.32C235.387 225.747 244.533 228.22 253.633 230.693C253.867 230.74 253.96 230.413 253.727 230.367C221.387 221.593 189.047 212.773 156.38 205.54C147.187 203.487 137.947 201.573 128.66 199.8C128.427 199.8 128.333 200.127 128.52 200.173Z" fill="white"/>
<path d="M78.3066 249.127H60.9466L55.44 213.38H84.7933L78.3066 249.127Z" fill="#180E25"/>
<path d="M70.14 217.953C78.2328 217.953 84.7933 215.843 84.7933 213.24C84.7933 210.637 78.2328 208.527 70.14 208.527C62.0472 208.527 55.4866 210.637 55.4866 213.24C55.4866 215.843 62.0472 217.953 70.14 217.953Z" fill="white" stroke="#180E25" stroke-miterlimit="10"/>
<path d="M70.7467 175.813C65.2867 179.733 64.12 188.973 68.3667 194.153C71.12 197.513 74.4333 199.847 73.08 204.7C72.0533 208.34 69.86 211.56 69.9533 215.48C70.3733 215.34 70.84 215.247 71.26 215.107C71.12 214.733 70.9333 214.407 70.7933 214.033C70.42 213.193 69.2533 213.94 69.58 214.733C69.72 215.107 69.9067 215.433 70.0467 215.807C70.3267 216.46 71.3533 216.087 71.3533 215.433C71.26 209.227 77.56 203.533 73.3133 197.513C71.26 194.573 68.1333 192.753 67.3867 188.927C66.5933 184.773 67.9 179.453 71.4467 176.887C72.1933 176.513 71.4933 175.3 70.7467 175.813Z" fill="#6A3EA1"/>
<path d="M60.7133 189.347C59.4533 192.987 59.5933 197.28 61.88 200.547C62.9533 202.087 64.4933 202.973 65.9866 204.093C68.32 205.773 70.0466 207.967 71.26 210.58C71.6333 211.373 72.8466 210.673 72.4733 209.88C70.84 206.333 68.32 204.14 65.24 201.9C61.32 199.053 60.5266 194.153 62.0666 189.767C62.3466 188.88 60.9933 188.507 60.7133 189.347Z" fill="#6A3EA1"/>
<path d="M71.1667 195.04C73.3133 192.707 75.2733 190.327 75.74 187.107C76.02 185.147 75.9267 183.093 76.2067 181.133C76.5333 178.94 77.2333 176.887 78.2133 174.88C78.5867 174.087 77.3733 173.34 77 174.18C75.6 177.12 74.8067 180.2 74.5733 183.467C74.4333 185.567 74.48 187.62 73.5467 189.533C72.7067 191.213 71.4 192.66 70.14 194.013C69.58 194.713 70.56 195.74 71.1667 195.04Z" fill="#6A3EA1"/>
<path d="M67.7133 165.78C63.0933 170.447 62.4399 177.96 66.2199 183.327C66.7333 184.073 67.9466 183.373 67.4333 182.627C64.0266 177.773 64.4933 171.007 68.6933 166.76C69.3466 166.153 68.3199 165.127 67.7133 165.78Z" fill="#6A3EA1"/>
<path d="M61.32 196.907C60.7133 196.487 56.9333 193.827 56.2333 188.74C55.58 184.12 57.96 180.76 58.4733 180.107C59.4533 181.74 60.6667 184.167 61.32 187.387C62.1133 191.447 61.74 194.9 61.32 196.907Z" fill="#6A3EA1"/>
<path d="M65.9866 169.187C65.5666 168.207 64.8666 166.2 65.24 163.773C66.0333 158.593 70.9333 156.213 71.4 155.98C71.5866 157.053 71.68 158.36 71.54 159.807C70.9333 164.987 67.2 168.207 65.9866 169.187Z" fill="#6A3EA1"/>
<path d="M68.9266 179.547C68.6466 178.567 67.8533 175.533 69.2066 172.033C70.84 167.833 74.34 166.107 75.1333 165.733C75.2266 167.227 75.18 170.353 73.5466 173.76C72.0533 176.747 70.0466 178.613 68.9266 179.547Z" fill="#6A3EA1"/>
<path d="M79.1 186.827C77.5133 188.273 75.6 188.507 74.76 188.553C75.1333 187.153 75.7866 185.333 76.9533 183.373C78.3066 180.993 79.8933 179.313 81.1066 178.24C82.0866 181.507 81.2933 184.867 79.1 186.827Z" fill="#6A3EA1"/>
<path d="M76.9066 176.233C76.8133 175.02 76.86 173.107 77.6533 170.96C79.0066 167.227 81.7133 165.22 82.8333 164.473C82.9266 165.687 82.9733 168.907 80.9666 172.173C79.6133 174.32 77.9333 175.58 76.9066 176.233Z" fill="#6A3EA1"/>
<path d="M65.52 202.927C64.96 202.133 63.98 200.593 63.7 198.4C63.2333 194.807 65.0066 192.147 65.52 191.447C66.08 192.427 67.2 194.807 67.0133 197.933C66.8266 200.22 66.0333 201.947 65.52 202.927Z" fill="#6A3EA1"/>
<path opacity="0.77" d="M25.5733 32.5934L28.84 97.7867L80.5933 106.373V37.5867L25.5733 32.5934Z" fill="white" stroke="#180E25" stroke-width="0.75" stroke-miterlimit="10"/>
<path opacity="0.68" d="M5.92667 62.2267C5.92667 62.2267 4.66667 135.54 5.92667 135.773C7.18667 136.007 50.96 145.2 50.96 145.2L54.46 70.58L5.92667 62.2267Z" fill="white" stroke="#180E25" stroke-width="0.75" stroke-miterlimit="10"/>
<path d="M31.4066 41.4601L65.3333 45.2868" stroke="#180E25" stroke-width="0.75" stroke-miterlimit="10"/>
<path d="M29.9134 48.0867L65.1467 51.9133" stroke="#180E25" stroke-width="0.75" stroke-miterlimit="10"/>
<path d="M30.8933 59.3334L64.3533 63.2534" stroke="#180E25" stroke-width="0.75" stroke-miterlimit="10"/>
<path d="M32.6667 53.5934L59.1734 56.4867" stroke="#180E25" stroke-width="0.75" stroke-miterlimit="10"/>
<path d="M70.28 45.9867C70.98 46.64 72.38 48.5067 73.3133 47.1534C73.8733 46.3134 74.2467 45.24 74.76 44.3534C75.32 43.3267 75.9733 42.3467 76.6267 41.4134C77.14 40.6667 75.9267 39.9667 75.4133 40.7134C74.5733 41.9267 73.78 43.14 73.1267 44.4467C72.8467 44.96 72.3333 45.66 72.24 46.22C72.0533 46.5467 72.1466 46.5 72.4267 46.1267C72.3333 46.0334 72.24 45.94 72.1467 45.8467C72.0067 45.5667 71.54 45.2867 71.3067 45.0534C70.6066 44.4 69.58 45.38 70.28 45.9867Z" fill="#6A3EA1"/>
<path d="M70.1867 53.8267C70.7934 54.9467 71.5867 57.1401 73.0334 55.6001C74.2934 54.2467 75.4134 52.6601 76.3934 51.0734C76.86 50.3267 75.6467 49.5801 75.18 50.3734C74.6667 51.1667 74.1534 51.9601 73.5934 52.7067C73.2667 53.1267 72.94 53.5467 72.6134 53.9667C72.4267 54.1534 72.1 54.7601 71.82 54.8067C72.0067 54.8534 72.1934 54.8534 72.38 54.9001C71.96 54.6667 71.5867 53.5467 71.4 53.1267C70.98 52.3334 69.7667 53.0334 70.1867 53.8267Z" fill="#6A3EA1"/>
<path d="M70.2333 62.6933C70.98 63.44 71.3067 66.66 72.94 66.0067C73.6867 65.7267 73.9667 64.6533 74.2933 64C74.8533 62.88 75.3667 61.7133 75.9267 60.5933C76.3 59.8 75.0867 59.0533 74.7134 59.8933C74.2934 60.7333 73.92 61.5733 73.5 62.4133C73.3133 62.7867 73.1733 63.1133 72.9867 63.4867C72.8933 63.72 72.6133 64.6533 72.3333 64.7C72.52 64.7467 72.7067 64.7467 72.8933 64.7933C72.4733 64.56 72.3334 63.5333 72.1467 63.16C71.9134 62.6 71.6333 62.18 71.26 61.7133C70.6067 61.0133 69.58 62.04 70.2333 62.6933Z" fill="#6A3EA1"/>
<path opacity="0.46" d="M8.77332 68.76L45.92 75.2" stroke="#180E25" stroke-width="0.75" stroke-miterlimit="10"/>
<path opacity="0.55" d="M8.91336 75.3867L42.7467 81.4534" stroke="#180E25" stroke-width="0.75" stroke-miterlimit="10"/>
<path opacity="0.61" d="M8.91336 81.4534L41.5334 87.24" stroke="#180E25" stroke-width="0.75" stroke-miterlimit="10"/>
<path opacity="0.61" d="M8.58667 89.3867L40.3667 94.9867" stroke="#180E25" stroke-width="0.75" stroke-miterlimit="10"/>
<path opacity="0.61" d="M9.4267 98.9534L39.5734 103.76" stroke="#180E25" stroke-width="0.75" stroke-miterlimit="10"/>
<path opacity="0.61" d="M8.77332 109.173L42.0467 115.1" stroke="#180E25" stroke-width="0.75" stroke-miterlimit="10"/>
<path opacity="0.61" d="M9.75333 116.733L33.6467 121.4" stroke="#180E25" stroke-width="0.75" stroke-miterlimit="10"/>
<path opacity="0.61" d="M11.5733 123.967L45.92 131.2" stroke="#180E25" stroke-width="0.75" stroke-miterlimit="10"/>
<path d="M44.7067 80.7534C45.1733 81.5934 45.5467 82.48 46.06 83.2267C46.3867 83.6934 46.7133 83.9267 47.2733 83.9734C47.6 83.9734 47.8333 83.74 47.9267 83.46C48.5333 81.78 49.3267 80.1934 50.3067 78.6534C50.82 77.9067 49.6067 77.2067 49.0933 77.9534C48.0667 79.54 47.2267 81.2667 46.5733 83.0867C46.8067 82.9 47.04 82.76 47.2267 82.5734C46.9933 82.5734 46.0133 80.3334 45.8733 80.0534C45.4533 79.26 44.2867 79.96 44.7067 80.7534Z" fill="#6A3EA1"/>
<path d="M42.98 94.6134C43.4 95.4068 44.9866 99.3734 46.3866 97.4601C46.9 96.7601 46.9933 95.7334 47.4133 94.9868C47.9733 93.9601 48.72 93.1201 49.56 92.3268C50.26 91.7201 49.2333 90.7401 48.58 91.3468C47.5066 92.2801 46.5733 93.4468 45.9666 94.7068C45.8266 94.9868 45.4066 96.4801 45.3133 96.4801C45.5933 96.4334 44.2866 94.0534 44.1933 93.9134C43.7733 93.0734 42.56 93.8201 42.98 94.6134Z" fill="#6A3EA1"/>
<path d="M42.6067 111.833C43.12 113.42 43.7733 114.96 44.6133 116.407C44.94 116.967 45.6867 116.78 45.8733 116.22C46.8067 113.933 47.7867 111.647 49.14 109.593C49.6533 108.847 48.44 108.147 47.9267 108.893C46.48 111.087 45.5 113.467 44.52 115.847C44.94 115.8 45.36 115.753 45.78 115.66C45.0333 114.307 44.38 112.907 43.9133 111.413C43.68 110.573 42.3267 110.947 42.6067 111.833Z" fill="#6A3EA1"/>
<path opacity="0.83" d="M192.5 53.5934L189.373 92.7467L231.607 100.867L237.393 60.3601L192.5 53.5934Z" fill="white" stroke="#180E25" stroke-width="0.75" stroke-miterlimit="10"/>
<path opacity="0.83" d="M194.087 58.12L222.227 62.2267" stroke="#180E25" stroke-width="0.75" stroke-miterlimit="10"/>
<path opacity="0.83" d="M194.087 62.2267L222.227 66.52" stroke="#180E25" stroke-width="0.75" stroke-miterlimit="10"/>
<path opacity="0.83" d="M193.48 68.1534L222.74 72.9134" stroke="#180E25" stroke-width="0.75" stroke-miterlimit="10"/>
<path opacity="0.83" d="M192.5 73.8467L217.093 78.42" stroke="#180E25" stroke-width="0.75" stroke-miterlimit="10"/>
<path opacity="0.83" d="M193.34 77.8134L215.04 81.5" stroke="#180E25" stroke-width="0.75" stroke-miterlimit="10"/>
<path opacity="0.83" d="M193.2 83.8334L215.18 88.1734" stroke="#180E25" stroke-width="0.75" stroke-miterlimit="10"/>
<g opacity="0.83">
<g opacity="0.83">
<path d="M223.907 65.0267C224.373 65.6801 225.68 68.2934 226.66 66.7067C227.127 65.9601 227.313 65.0267 227.733 64.2801C228.247 63.3934 228.807 62.5534 229.507 61.8067C230.113 61.1534 229.133 60.1267 228.527 60.8267C227.873 61.6201 227.22 62.4134 226.707 63.3001C226.427 63.7201 226.193 64.1867 226.007 64.6534C225.913 64.8401 225.493 65.8667 225.633 65.8201C225.867 65.8667 226.1 65.9601 226.333 66.0067C225.867 65.5401 225.493 64.8867 225.12 64.3267C224.607 63.5801 223.393 64.2801 223.907 65.0267Z" fill="#6A3EA1"/>
</g>
</g>
<path d="M106.633 228.18C106.307 231.213 106.027 234.293 105.7 237.327C110.787 239.66 127.167 247.033 128.707 244.513C130.2 242.04 116.993 231.4 112.42 227.807C110.507 227.947 108.547 228.087 106.633 228.18Z" fill="#180E25"/>
<path d="M113.867 230.373C112.467 229.253 109.947 233.547 111.44 233.92C112.513 234.2 113.54 231.913 113.867 231.26C114.193 230.513 114.333 229.767 114.567 229.02C114.707 228.18 115.22 228.04 116.153 228.647C115.967 228.833 115.78 229.067 115.547 229.253C115.033 229.72 114.52 230.14 113.96 230.56C113.773 230.7 113.96 230.98 114.147 230.84C114.847 230.327 115.5 229.767 116.107 229.16C116.387 228.88 116.947 228.413 116.807 227.947C116.667 227.247 115.78 227.2 115.267 227.48C114.147 228.04 114.053 229.72 113.68 230.747C113.54 231.073 111.86 234.527 111.347 232.987C111.113 232.333 113.027 230.14 113.633 230.607C113.773 230.747 114.053 230.513 113.867 230.373Z" fill="white"/>
<path d="M115.127 233.127C115.547 232.427 116.153 231.913 116.947 231.633C117.18 231.54 117.087 231.213 116.853 231.307C115.967 231.587 115.267 232.147 114.8 232.94C114.707 233.173 115.033 233.313 115.127 233.127Z" fill="white"/>
<path d="M116.573 233.873C116.9 233.173 117.647 232.94 118.347 232.753C118.58 232.707 118.487 232.38 118.253 232.427C117.46 232.613 116.667 232.893 116.293 233.687C116.2 233.92 116.48 234.107 116.573 233.873Z" fill="white"/>
<path d="M117.647 235.04C118.253 234.387 119 234.06 119.887 234.107C120.12 234.107 120.12 233.78 119.887 233.733C118.953 233.687 118.02 234.06 117.413 234.76C117.227 234.993 117.507 235.227 117.647 235.04Z" fill="white"/>
<path d="M105.887 235.88C109.713 238.027 113.773 239.473 117.88 240.92C118.113 241.013 118.207 240.64 117.973 240.593C113.867 239.193 109.853 237.747 106.073 235.6C105.84 235.46 105.653 235.787 105.887 235.88Z" fill="white"/>
<path d="M127.68 135.733C127.26 137.367 126.42 140.867 125.3 145.253C115.5 184.64 112.14 196.68 108.547 216.513C108.127 218.893 107.38 223 106.587 228.18C106.96 228.507 108.173 229.58 110.087 229.673C112.233 229.813 113.68 228.693 114.007 228.413C115.127 225.52 116.993 220.853 119.373 215.067C124.787 202 127.307 196.82 140.093 168.12C144.387 158.507 144.9 157.247 147.84 150.76C151.06 143.62 152.553 140.4 154.933 134.94C157.593 128.827 159.647 123.833 161 120.613C158.48 120.1 156.193 119.96 154.233 120.053C139.86 120.613 130.247 132.42 127.68 135.733Z" fill="white"/>
<path d="M160.58 122.107C144.993 156.687 129.64 191.36 114.427 226.127C114.333 226.313 114.66 226.5 114.707 226.313C129.92 191.547 145.32 156.873 160.86 122.293C160.953 122.107 160.673 121.92 160.58 122.107Z" fill="#180E25"/>
<path d="M126.187 141.473C118.58 169.613 112 198.033 106.4 226.64C106.353 226.873 106.68 226.967 106.727 226.733C112.327 198.127 118.907 169.707 126.513 141.567C126.56 141.333 126.233 141.24 126.187 141.473Z" fill="#180E25"/>
<path d="M106.68 228.833C109.013 230.28 111.907 230.187 114.147 228.6C114.333 228.46 114.147 228.18 113.96 228.32C111.813 229.86 109.107 229.953 106.867 228.553C106.68 228.413 106.493 228.74 106.68 228.833Z" fill="#180E25"/>
<path d="M111.953 240.127C111.627 243.16 111.347 246.24 111.02 249.273C116.107 251.607 132.487 258.98 134.027 256.46C135.52 253.987 122.313 243.347 117.74 239.753C115.827 239.893 113.913 240.033 111.953 240.127Z" fill="#180E25"/>
<path d="M111.067 132.093C111.02 134.287 110.927 137.693 110.88 141.893C110.74 150.62 110.507 169.1 111.393 207.973C111.58 216.14 111.86 227.34 112.327 240.733C112.56 240.92 113.727 241.76 115.36 241.573C116.527 241.433 117.32 240.78 117.6 240.547C119.747 230.607 121.613 222.393 122.92 216.7C129.593 187.253 132.907 172.553 136.08 162.987C137.34 159.16 138.32 155.66 140.327 148.66C145.273 131.207 144.993 129.2 144.107 127.893C139.3 121.033 114.94 130.553 111.067 132.093Z" fill="white"/>
<path d="M110.693 131.207C110.693 167.513 111.02 203.867 111.767 240.173C111.767 240.407 112.14 240.407 112.14 240.173C111.393 203.867 111.02 167.56 111.067 131.207C111.02 130.973 110.693 130.973 110.693 131.207Z" fill="#180E25"/>
<path d="M139.767 149.08C131.32 178.9 124.04 209.047 117.973 239.427C117.927 239.66 118.253 239.753 118.3 239.52C124.413 209.14 131.693 178.993 140.093 149.173C140.14 148.94 139.813 148.847 139.767 149.08Z" fill="#180E25"/>
<path d="M112.233 240.92C113.867 242.18 116.2 242.087 117.74 240.687C117.927 240.547 117.647 240.267 117.507 240.453C116.06 241.76 113.96 241.807 112.42 240.593C112.233 240.5 112.047 240.827 112.233 240.92Z" fill="#180E25"/>
<path d="M119.187 242.32C117.787 241.2 115.267 245.493 116.76 245.867C117.833 246.147 118.86 243.86 119.187 243.207C119.513 242.46 119.653 241.713 119.887 240.967C120.027 240.127 120.54 239.987 121.473 240.593C121.287 240.78 121.1 241.013 120.867 241.2C120.353 241.667 119.84 242.087 119.28 242.507C119.093 242.647 119.28 242.927 119.467 242.787C120.167 242.273 120.82 241.713 121.427 241.107C121.707 240.827 122.267 240.36 122.127 239.893C121.987 239.193 121.1 239.147 120.587 239.427C119.467 239.987 119.373 241.667 119 242.693C118.86 243.02 117.18 246.473 116.667 244.933C116.433 244.28 118.347 242.087 118.953 242.553C119.14 242.693 119.373 242.46 119.187 242.32Z" fill="white"/>
<path d="M120.493 245.073C120.913 244.373 121.52 243.86 122.313 243.58C122.547 243.487 122.453 243.16 122.22 243.253C121.333 243.533 120.633 244.093 120.167 244.887C120.073 245.073 120.353 245.26 120.493 245.073Z" fill="white"/>
<path d="M121.94 245.82C122.267 245.12 123.013 244.887 123.713 244.7C123.947 244.653 123.853 244.327 123.62 244.373C122.827 244.56 122.033 244.84 121.66 245.633C121.52 245.867 121.847 246.053 121.94 245.82Z" fill="white"/>
<path d="M122.967 246.987C123.573 246.333 124.32 246.007 125.207 246.053C125.44 246.053 125.44 245.727 125.207 245.68C124.273 245.633 123.34 246.007 122.733 246.707C122.593 246.94 122.827 247.173 122.967 246.987Z" fill="white"/>
<path d="M111.207 247.827C115.033 249.973 119.093 251.42 123.2 252.867C123.433 252.96 123.527 252.587 123.293 252.54C119.187 251.14 115.173 249.693 111.393 247.547C111.207 247.407 111.02 247.733 111.207 247.827Z" fill="white"/>
<path d="M202.718 91.3822L202.809 91.2831L202.776 91.1527C202.591 90.4144 202.359 89.3018 202.127 87.9071C201.656 84.8488 201.445 83.3927 202.062 81.9808C202.154 81.7751 202.399 81.229 202.838 80.6903C203.277 80.1513 203.895 79.6367 204.729 79.4652C205.653 79.2896 206.768 79.4729 207.484 80.2311C208.061 80.8491 208.116 81.5818 208.163 83.2404L208.163 83.2404L208.164 83.2422C208.257 85.8549 208.304 87.3943 208.35 88.9806L208.843 89.033C209.192 87.6123 209.457 86.764 209.659 86.2747C209.753 86.0483 209.828 85.9111 209.885 85.8321C209.909 85.8768 209.935 85.9378 209.961 86.0171C210.037 86.2473 210.102 86.5849 210.136 86.9988C210.204 87.8248 210.147 88.915 209.852 89.98L209.852 89.9816C209.536 91.1571 209.039 91.9706 208.628 92.5643L208.627 92.566C207.938 93.5795 207.438 94.043 205.88 95.4903C205.689 95.6679 205.482 95.8603 205.256 96.0704L205.255 96.072C204.649 96.6468 204.163 97.1156 203.768 97.4966C203.26 97.9866 202.903 98.3312 202.635 98.5691C202.397 98.7817 202.253 98.8875 202.154 98.9359C202.075 98.9745 202.043 98.9687 202.006 98.9561L202.006 98.9559L201.997 98.9533C201.838 98.9069 201.666 98.7238 201.516 98.3197C201.371 97.9297 201.273 97.4015 201.213 96.7944C201.095 95.6138 201.125 94.1909 201.191 93.0434C201.429 92.7837 201.677 92.5149 201.924 92.2459C202.192 91.9543 202.461 91.6624 202.718 91.3822ZM209.833 85.753C209.832 85.7521 209.831 85.7514 209.831 85.7514C209.831 85.7513 209.832 85.7518 209.833 85.753ZM209.949 85.7609C209.949 85.7609 209.949 85.7613 209.948 85.7618C209.949 85.7611 209.949 85.7608 209.949 85.7609Z" fill="white" stroke="#180E25" stroke-width="0.5"/>
<path d="M158.299 48.6643L158.299 48.6643C159.071 48.4975 160.005 48.809 160.864 49.2702C161.712 49.7252 162.432 50.2962 162.751 50.5698L162.75 50.57L162.76 50.5773C163.987 51.5317 164.711 52.3877 165.63 54.2251L165.63 54.2257C167.234 57.4104 168.256 60.0823 168.877 61.9561C169.187 62.8929 169.397 63.6302 169.529 64.1322C169.595 64.3833 169.642 64.5754 169.672 64.7043C169.687 64.7688 169.698 64.8174 169.705 64.8496L169.713 64.8856L169.715 64.8943L169.715 64.8946C169.715 64.895 169.715 64.8954 169.715 64.8958C170.038 66.5487 170.424 68.4721 170.86 70.6466C172.063 76.6426 173.649 84.5489 175.361 93.9647L175.4 94.1782L175.616 94.1698C177.412 94.0998 179.208 94.0415 181.005 93.9831H181.005C182.801 93.9248 184.598 93.8665 186.396 93.7964L186.396 93.7964L193.956 93.5164L201.469 93.2382C201.859 93.3782 202.572 93.7698 203.123 94.5315C204.147 95.9896 203.64 97.7355 203.491 98.227C202.777 98.5965 201.85 99.0443 200.756 99.5725C200.215 99.8336 199.634 100.114 199.018 100.415C193.605 103.028 188.853 105.311 182.657 107.686C178.885 109.13 177.52 109.476 176.368 109.735C176.278 109.756 176.188 109.776 176.098 109.795C175.033 110.032 173.998 110.262 171.273 111.279L171.273 111.279L171.267 111.281C170.581 111.556 168.843 112.196 166.558 112.15L166.558 112.15H166.553C165.442 112.15 163.281 112.054 161.533 110.621C160.37 109.636 159.876 108.472 159.601 107.739L159.6 107.737C158.39 104.572 157.564 101.897 157.041 100.013C156.779 99.0713 156.593 98.3277 156.473 97.8202C156.413 97.5664 156.369 97.3717 156.34 97.2407C156.326 97.1752 156.315 97.1256 156.309 97.0926L156.301 97.0556L156.299 97.0465L156.298 97.0443L156.298 97.0438L156.298 97.0437L156.298 97.0425C154.991 90.7414 154.387 87.6255 154.015 84.372C153.736 81.8605 153.55 79.022 153.503 75.8097L153.503 75.8097L153.503 75.807C153.457 73.943 153.352 67.3982 153.934 61.1774C154.225 58.0652 154.687 55.048 155.408 52.742C155.769 51.5884 156.191 50.6261 156.68 49.9213C157.169 49.2158 157.708 48.7918 158.299 48.6643Z" fill="#F8C715" stroke="#180E25" stroke-width="0.5"/>
<path d="M203.467 84.4933C203.327 82.6266 203.793 80.8999 204.82 79.3599C204.96 79.1733 204.633 78.9866 204.54 79.1733C203.467 80.7599 202.953 82.5799 203.14 84.4933C203.14 84.7266 203.467 84.7266 203.467 84.4933Z" fill="#180E25"/>
<path d="M205.567 84.5866C205.38 82.8132 205.8 81.1332 206.92 79.7332C207.06 79.5466 206.827 79.3132 206.687 79.4999C205.52 80.9932 205.053 82.7199 205.24 84.5866C205.24 84.7732 205.567 84.7732 205.567 84.5866Z" fill="#180E25"/>
<path d="M207.2 84.26C207.247 82.9066 207.713 81.6466 208.553 80.5733C208.693 80.3866 208.367 80.2 208.273 80.3866C207.387 81.5066 206.92 82.8133 206.873 84.26C206.827 84.4933 207.2 84.4933 207.2 84.26Z" fill="#180E25"/>
<path d="M208.787 89.0199C208.973 88.1333 209.253 87.2933 209.72 86.4999C209.813 86.3133 209.533 86.1266 209.44 86.3133C208.973 87.1066 208.647 87.9933 208.507 88.8799C208.367 89.1599 208.74 89.2533 208.787 89.0199Z" fill="#180E25"/>
<path d="M162.29 74.1375L162.29 74.1369C162.22 69.3249 162.15 68.8916 162.037 68.2622L162.033 68.2377C161.914 67.5701 161.751 66.6585 161.497 61.1256M162.29 74.1375L161.747 61.1133M162.29 74.1375C162.523 87.997 162.616 95.6401 161.777 106.827C161.499 110.403 161.035 115.32 160.294 121.119C158.857 122.92 156.784 125.216 154.029 127.466L154.028 127.467C152.731 128.532 149.621 130.946 145.026 133.127L145.024 133.128C143.497 133.869 139.598 135.587 134.258 136.655C131.939 137.119 128.086 137.676 123.352 137.444C118.806 137.212 116.975 136.424 116.358 136.116L116.359 136.116L116.352 136.113C113.822 134.938 112.226 133.228 111.302 132.035C110.048 125.252 109.165 119.443 108.514 114.885C107.54 107.788 106.981 101.059 105.872 87.6988L105.856 87.5061C105.856 87.506 105.856 87.506 105.856 87.5059C105.202 79.5663 105.112 77.7292 105.527 74.8692L105.527 74.8686C106.541 67.7708 109.481 62.3668 111.796 58.9295M162.29 74.1375L111.627 58.7333M161.497 61.1256C161.497 61.1253 161.497 61.125 161.497 61.1247L161.747 61.1133M161.497 61.1256C161.497 61.126 161.497 61.1264 161.497 61.1268L161.747 61.1133M161.497 61.1256C161.493 61.0459 161.488 60.9647 161.484 60.8819C161.393 59.172 161.268 56.8134 160.388 53.9075M161.747 61.1133C161.742 61.0326 161.738 60.9504 161.734 60.8665C161.643 59.1543 161.516 56.7694 160.627 53.8333M160.388 53.9075C160.388 53.9081 160.388 53.9088 160.389 53.9095L160.627 53.8333M160.388 53.9075C159.673 51.6754 158.787 49.8744 158.103 48.672M160.388 53.9075C160.388 53.9069 160.388 53.9063 160.387 53.9058L160.627 53.8333M160.627 53.8333L158.103 48.672M158.103 48.672C158.152 48.6713 158.201 48.6706 158.25 48.6699L158.247 48.4199L158.03 48.5449C158.054 48.5864 158.078 48.6288 158.103 48.672ZM158.103 48.672C144.358 48.8732 129.604 51.2539 114.946 57.5162M158.103 48.672L114.847 57.2866M114.946 57.5162C114.946 57.5161 114.946 57.516 114.946 57.5159L114.847 57.2866M114.946 57.5162C114.945 57.5163 114.945 57.5164 114.945 57.5165L114.847 57.2866M114.946 57.5162C113.892 57.9741 112.844 58.4301 111.796 58.9295M114.847 57.2866C113.773 57.7533 112.7 58.2199 111.627 58.7333M111.796 58.9295C111.809 58.9107 111.821 58.8919 111.834 58.8732L111.627 58.7333M111.796 58.9295C111.775 58.9393 111.755 58.949 111.735 58.9588L111.627 58.7333" fill="#F8C715" stroke="#180E25" stroke-width="0.5"/>
<path d="M161.327 58.2666C163.193 78.1466 163.007 98.1666 160.86 118C160.813 118.233 161.187 118.233 161.233 118C163.38 98.1666 163.567 78.1466 161.7 58.2666C161.653 58.0332 161.327 58.0332 161.327 58.2666Z" fill="#180E25"/>
<path d="M105 77.3066C105.56 95.7399 107.52 114.08 110.927 132.187C110.973 132.42 111.3 132.327 111.253 132.093C107.893 114.033 105.887 95.6933 105.327 77.3066C105.327 77.0733 104.953 77.0733 105 77.3066Z" fill="#180E25"/>
<path d="M78.68 46.0399C78.4467 46.0399 77.98 46.1332 76.0667 48.2799C75.0867 49.3999 74.34 50.3332 73.8267 51.0799C74.1533 51.6866 74.7133 52.5266 75.5533 53.3199C76.4867 54.2066 77.42 54.7666 78.0733 55.0932C78.3533 56.2132 78.7733 57.4266 79.4267 58.7332C80.1733 60.3666 81.0133 61.5799 81.6667 62.4199C82.2347 63.1627 82.7618 63.7418 83.2096 64.2339C83.2401 64.2674 83.2703 64.3005 83.3 64.3332C83.16 64.6599 83.0317 64.9866 82.9033 65.3132C82.775 65.6399 82.6467 65.9666 82.5067 66.2932L78.68 46.0399ZM78.68 46.0399C79.4267 45.9932 79.94 46.5999 81.9933 49.3066C83.3467 51.1266 84 52.0132 84.56 52.8066M78.68 46.0399L84.56 52.8066M84.56 52.8066L84.5814 52.8383C85.9256 54.8315 87.0866 56.5529 88.34 59.0132C89.6467 61.5332 90.02 62.8399 90.2067 63.9132C90.3933 64.9399 90.44 65.7799 90.44 66.3866C89.6933 68.1599 87.8733 69.2799 86.0533 69.1866L84.56 52.8066ZM86.0739 68.9373C84.5752 68.763 83.323 67.7511 82.7754 66.3003C82.9019 66.0007 83.0193 65.7019 83.1353 65.4064L83.136 65.4047C83.2646 65.0774 83.3915 64.7543 83.5298 64.4317L83.5931 64.284L83.485 64.1651C83.4554 64.1326 83.4255 64.0997 83.3953 64.0665C82.9472 63.5741 82.4266 63.0021 81.8653 62.268L81.864 62.2664C81.219 61.4371 80.3905 60.2404 79.654 58.6293L79.6542 58.6292L79.6503 58.6214C79.0057 57.3323 78.5918 56.1362 78.3159 55.0326L78.288 54.9211L78.1851 54.8696C77.5483 54.5512 76.6369 54.0045 75.7255 53.1387L75.725 53.1382C74.9683 52.4235 74.4452 51.6696 74.1206 51.0951C74.6223 50.3814 75.3325 49.4986 76.2541 48.4454C77.2073 47.3759 77.7892 46.8308 78.1543 46.5542C78.3361 46.4164 78.4562 46.3515 78.5346 46.3204C78.6065 46.2918 78.6472 46.2899 78.68 46.2899H78.6878L78.6956 46.2894C78.8412 46.2803 78.969 46.302 79.1122 46.3736C79.2623 46.4487 79.4383 46.5832 79.6688 46.8164C80.1328 47.2861 80.763 48.0984 81.7934 49.4567C83.1454 51.2748 83.7967 52.1589 84.3542 52.9486L84.3719 52.9749C85.717 54.9693 86.8708 56.6801 88.1172 59.1267L88.1181 59.1283C89.4165 61.6324 89.7792 62.9145 89.9604 63.9561L89.9607 63.958C90.1392 64.9395 90.1873 65.7461 90.1899 66.3356C89.4728 67.9837 87.7694 69.0208 86.0739 68.9373Z" fill="white" stroke="#180E25" stroke-width="0.5"/>
<path d="M82.791 65.8502C83.7825 66.2503 85.1948 66.6931 86.9213 66.8226L86.9233 66.8227C88.2199 66.9092 89.3188 66.7989 90.2144 66.6722C90.5902 70.8506 91.1921 75.298 92.1079 80.0143L92.1084 80.0168C92.4818 81.837 92.856 83.6149 93.2774 85.3006L93.4398 85.9499L93.7429 85.3532C98.2201 76.5387 102.087 70.017 104.318 66.8101C106.358 63.9275 108.143 62.1485 108.823 61.4699C108.854 61.4395 108.882 61.4113 108.908 61.3853C109.93 60.4065 110.872 59.6238 111.592 59.0734C116.191 64.3756 117.553 69.2456 118.101 71.9415C119.755 80.675 116.2 88.7312 112.526 97.0561L112.472 97.1768C112.472 97.1772 112.472 97.1775 112.472 97.1778C111.355 99.644 110.285 101.69 109.543 102.989L109.542 102.991L109.502 103.061C108.06 105.62 106.117 109.068 102.762 112.745C99.6717 116.116 97.6214 118.338 94.2083 119.157L94.2049 119.158C91.8777 119.751 90.0534 119.432 89.5526 119.341C85.5886 118.592 83.2804 115.757 82.3697 114.638C82.3387 114.6 82.3094 114.564 82.2817 114.53C81.784 113.896 80.4497 112.059 79.4344 108.46C78.3262 104.304 78.4631 100.885 78.7427 97.018L78.7427 97.0179C79.4993 86.5133 80.851 77.836 81.6216 72.889C81.658 72.6553 81.6931 72.4299 81.7268 72.213C81.869 71.3599 82.0024 70.5507 82.1271 69.7943C82.3858 68.2255 82.607 66.8842 82.791 65.8502Z" fill="#F8C715" stroke="#180E25" stroke-width="0.5"/>
<path d="M82.3667 66.1533C80.9667 73.6666 79.8 81.2266 79.0067 88.88C78.26 95.88 77.0933 103.58 79.5667 110.393C81.3867 115.34 85.6333 119.773 91.1867 119.96C97.2067 120.147 101.687 114.92 105 110.533C109.573 104.56 113.027 97.84 115.313 90.6533C115.36 90.42 115.033 90.3266 114.987 90.56C112.56 98.1666 108.78 105.307 103.787 111.513C101.36 114.547 98.5133 117.72 94.7333 119.027C90.58 120.427 86.1467 118.887 83.2067 115.76C77.2333 109.46 78.26 99.8466 79.0067 91.96C79.8 83.3266 81.06 74.74 82.6467 66.2C82.74 66.0133 82.4133 65.92 82.3667 66.1533Z" fill="#180E25"/>
<path d="M86.1933 64.3334C84.42 62.98 83.44 60.9734 83.3934 58.7333C83.3934 58.5 83.02 58.5 83.02 58.7333C83.0667 61.0667 84.0934 63.1667 85.9133 64.5667C86.1 64.7067 86.38 64.4734 86.1933 64.3334Z" fill="#180E25"/>
<path d="M82.8334 57.4267C82.32 56.9133 80.7334 55.0467 81.76 54.3933C81.9467 54.2533 81.76 53.9734 81.5734 54.1134C80.22 55 81.8534 56.96 82.5534 57.7067C82.74 57.8467 82.9734 57.6133 82.8334 57.4267Z" fill="#180E25"/>
<path d="M77.6533 46.74C78.26 48.8867 79.94 50.3333 81.6667 51.64C81.8533 51.78 82.04 51.4533 81.8533 51.36C80.1733 50.1467 78.5867 48.7467 78.0267 46.6933C77.9333 46.46 77.6067 46.5533 77.6533 46.74Z" fill="#180E25"/>
<path d="M75.9733 48.3266C76.4866 49.2133 77.0466 50.0533 77.7 50.8466C77.98 51.22 78.3066 51.5933 78.6333 51.8733C78.96 52.1533 79.38 52.2933 79.7533 52.5266C79.94 52.6666 80.1266 52.34 79.94 52.2466C79.6133 52.0133 79.1933 51.8733 78.8666 51.64C78.4933 51.3599 78.2133 50.9866 77.9333 50.6133C77.3266 49.8199 76.7666 49.0266 76.2533 48.1399C76.16 47.9533 75.88 48.1399 75.9733 48.3266Z" fill="#180E25"/>
<path d="M74.76 49.5867C75.6467 51.22 76.6733 52.9 78.4 53.74C78.5867 53.8333 78.7733 53.5533 78.5867 53.46C76.9067 52.6667 75.9267 51.0333 75.0867 49.4467C74.9933 49.2133 74.6667 49.4 74.76 49.5867Z" fill="#180E25"/>
<path d="M145.973 46.3666C145.88 42.8666 144.947 41.56 144.013 41.0466C142.987 40.4866 142.287 41.0466 137.107 42.0733C136.407 42.2133 134.867 42.4466 131.74 42.8666C129.967 43.1 129.033 43.24 127.913 42.82C127.493 42.68 126 42.12 125.3 40.6733C124.32 38.6666 125.673 36.4266 125.953 35.96C127.493 33.3933 130.34 32.6933 131.507 32.4133C134.68 31.62 137.387 32.5066 138.553 32.9733C139.44 30.5466 140.467 29.8933 141.213 29.7066C142.1 29.52 142.333 30.08 143.967 30.22C145.273 30.3133 146.3 30.0333 147.84 29.66C149.147 29.3333 149.473 29.1 150.127 28.9133C153.487 27.98 157.033 30.5 157.64 30.92C160.16 32.6933 161.327 35.0733 161.887 36.52C162.12 37.22 162.913 39.6466 162.4 42.7266C161.793 46.04 160.02 48.14 159.04 49.26C157.593 50.8933 155.167 53.74 151.107 54.1133C147.093 54.4866 144.107 52.2 143.313 51.5466C144.2 49.82 145.087 48.0933 145.973 46.3666Z" fill="#180E25"/>
<path d="M131.43 46.1472L131.43 46.1472L131.43 46.1419C131.473 44.8973 131.717 43.8534 131.937 43.1237C133.713 42.6956 134.955 42.0501 135.749 41.5365L135.749 41.5365L135.752 41.5346C136.204 41.2332 136.518 40.9812 136.788 40.7647C136.859 40.708 136.926 40.6537 136.993 40.6015C137.307 40.3543 137.603 40.146 138.088 39.9249C138.111 39.9165 138.135 39.9075 138.162 39.8978C138.737 39.6857 140.112 39.1782 141.77 39.5182L141.772 39.5186C143.83 39.9214 145.537 41.4465 146.254 43.2842L146.254 43.2852C146.999 45.1684 146.456 46.8784 145.855 48.774C145.846 48.8013 145.838 48.8286 145.829 48.856C145.373 50.2243 144.827 51.0399 144.561 51.3957C143.972 52.1654 143.385 52.6612 142.937 52.9752L142.756 53.1015L142.859 53.2964C143.09 53.7357 143.31 54.1872 143.532 54.6428L143.533 54.6445C143.731 55.0517 143.931 55.4622 144.14 55.865C143.442 56.8066 142.249 58.0263 140.444 58.5864C140.415 58.5942 140.384 58.6025 140.352 58.6112C139.991 58.7083 139.459 58.8516 138.925 58.8923C138.328 58.9378 137.817 58.8475 137.527 58.5205C137.371 58.3458 137.241 58.086 137.196 57.8121C137.152 57.5421 137.193 57.2786 137.351 57.0664C137.645 56.7024 138.261 56.5302 138.868 56.8132L139.323 57.0257L139.218 56.5342C139.147 56.2034 139.064 55.8733 138.983 55.548L138.982 55.546C138.901 55.2186 138.82 54.8961 138.751 54.5742L138.711 54.3882L138.521 54.3771C137.756 54.3321 136.354 54.1063 134.906 53.2013L134.906 53.2013L134.902 53.1989C134.459 52.9334 132.694 51.7121 131.835 49.4089C131.385 48.1004 131.384 46.9715 131.43 46.1472Z" fill="white" stroke="#180E25" stroke-width="0.5"/>
<path d="M132.487 42.3533C130.947 42.7267 129.173 43.1933 127.633 42.6333C125.16 41.7467 124.647 39.04 125.673 36.94C127.12 33.9067 130.993 32.74 134.12 32.6933C140.187 32.6 147.093 37.08 146.767 43.7067C146.767 43.94 147.093 43.94 147.14 43.7067C147.607 35.1667 137.013 30.5 129.873 33.1133C127.12 34.14 124.413 36.52 124.927 39.74C125.533 43.66 129.687 43.4267 132.673 42.7266C132.813 42.6333 132.72 42.3067 132.487 42.3533Z" fill="#180E25"/>
<path d="M133 42.6333C135.1 42.2133 136.407 40.4866 138.367 39.7399C141.82 38.4333 145.367 40.2533 146.533 43.7066C146.627 43.9399 146.953 43.8466 146.86 43.6133C146.067 41.2799 144.293 39.4133 141.773 38.9933C137.993 38.3399 136.267 41.6066 132.907 42.2599C132.673 42.3533 132.767 42.6799 133 42.6333Z" fill="#180E25"/>
<path d="M138.74 33.0667C138.973 32.4133 139.44 31.0133 140.093 30.64C140.933 30.1267 142.613 30.5 143.407 30.7333C143.92 30.8733 144.247 31.1067 144.807 31.1067C146.44 31.1067 147.887 29.8 149.473 29.4733C154.56 28.4467 159.74 31.3867 161.56 36.1933C165.433 46.18 154.28 57.4733 144.48 51.92C144.293 51.8267 144.107 52.1067 144.293 52.2C154.56 58.0333 166.32 45.8533 161.653 35.4933C159.647 31.06 154.933 28.4 150.08 29.0533C148.867 29.1933 147.933 29.66 146.86 30.0333C145.6 30.4533 144.387 30.5933 143.173 30.1267C142.753 29.9867 142.613 29.7067 142.147 29.6133C140.093 29.24 139.02 31.48 138.46 33.02C138.32 33.16 138.693 33.2533 138.74 33.0667Z" fill="#180E25"/>
<path d="M138.367 54.6733C138.507 55.3266 138.693 55.98 138.833 56.6333C138.88 56.8666 139.207 56.7733 139.16 56.54C139.02 55.8866 138.833 55.2333 138.693 54.58C138.647 54.3466 138.273 54.44 138.367 54.6733Z" fill="#180E25"/>
<path d="M137.247 43.1C136.22 45.4334 135.287 48.0933 137.06 50.2867C137.2 50.4733 137.433 50.1933 137.293 50.0533C135.613 48 136.593 45.4334 137.527 43.2867C137.667 43.1 137.34 42.9134 137.247 43.1Z" fill="#180E25"/>
<path d="M135.007 45.1533C135.316 45.1533 135.567 44.9026 135.567 44.5933C135.567 44.284 135.316 44.0333 135.007 44.0333C134.697 44.0333 134.447 44.284 134.447 44.5933C134.447 44.9026 134.697 45.1533 135.007 45.1533Z" fill="#180E25"/>
<path d="M140.28 45.1533C140.589 45.1533 140.84 44.9026 140.84 44.5933C140.84 44.284 140.589 44.0333 140.28 44.0333C139.971 44.0333 139.72 44.284 139.72 44.5933C139.72 44.9026 139.971 45.1533 140.28 45.1533Z" fill="#180E25"/>
<path d="M253.4 135.12L235.527 134.467C232.587 134.373 230.673 130.313 231.933 126.813L234.687 119.16C235.387 117.247 236.833 116.033 238.42 116.08L251.487 116.313C253.213 116.36 254.753 117.807 255.313 119.953L257.367 128.027C258.3 131.573 256.247 135.26 253.4 135.12Z" fill="white" stroke="#180E25" stroke-width="0.75" stroke-miterlimit="10"/>
<path d="M258.767 59.38C260.54 61.3867 262.36 63.6267 264.133 66.0533C271.087 75.7133 274.867 85.3733 277.06 93.2133C271.04 93.0733 265.02 92.9333 259.047 92.7467" fill="#6A3EA1"/>
<path d="M266.28 81.1267C267.447 93.2601 266.933 103.62 266.14 111.32C265.86 114.073 264.553 116.64 262.5 118.46C259.14 121.493 253.307 125.367 245.28 125.553C236.133 125.787 229.553 121.167 225.96 117.713C223.953 115.8 222.74 113.187 222.507 110.387C221.993 102.78 221.993 92.6534 224.233 81.0801C228.34 59.9401 240.193 31.9867 249.9 32.9667C261.52 34.2734 265.86 76.4601 266.28 81.1267Z" fill="white" stroke="#180E25" stroke-width="0.75" stroke-miterlimit="10"/>
<path d="M254.147 92.7467C258.606 92.7467 262.22 86.3324 262.22 78.42C262.22 70.5076 258.606 64.0934 254.147 64.0934C249.688 64.0934 246.073 70.5076 246.073 78.42C246.073 86.3324 249.688 92.7467 254.147 92.7467Z" fill="white" stroke="#180E25" stroke-width="0.75" stroke-miterlimit="10"/>
<path d="M231.887 61.5267C230.113 63.5334 228.293 65.7734 226.52 68.2001C219.567 77.8601 215.787 87.5201 213.593 95.3601C219.613 95.2201 225.633 95.0801 231.607 94.8934" fill="#6A3EA1"/>
<path opacity="0.71" d="M180.12 142.4C179.84 143.38 173.307 191.307 173.307 191.307L227.02 182.16L234.58 142.353L180.12 142.4Z" fill="white" stroke="#180E25" stroke-width="0.75" stroke-miterlimit="10"/>
<g opacity="0.38">
<g opacity="0.38">
<path opacity="0.38" d="M184.087 148.28C196.78 148.187 209.52 148.047 222.213 147.953C223.1 147.953 223.1 146.553 222.213 146.553C209.52 146.647 196.78 146.787 184.087 146.88C183.2 146.88 183.2 148.28 184.087 148.28Z" fill="#180E25"/>
</g>
</g>
<g opacity="0.38">
<g opacity="0.38">
<path opacity="0.38" d="M182.5 154.86C194.26 154.533 205.973 154.207 217.733 153.927C218.62 153.88 218.62 152.48 217.733 152.527C205.973 152.853 194.26 153.18 182.5 153.46C181.613 153.46 181.613 154.86 182.5 154.86Z" fill="#180E25"/>
</g>
</g>
<g opacity="0.38">
<g opacity="0.38">
<path opacity="0.38" d="M181.94 161.207C193.14 161.02 204.387 160.693 215.587 160.18C216.473 160.133 216.473 158.733 215.587 158.78C204.387 159.247 193.187 159.62 181.94 159.807C181.053 159.807 181.053 161.207 181.94 161.207Z" fill="#180E25"/>
</g>
</g>
<g opacity="0.38">
<g opacity="0.38">
<path opacity="0.38" d="M180.773 169.793C192.3 169.467 203.78 168.813 215.26 167.927C216.147 167.833 216.147 166.433 215.26 166.527C203.78 167.46 192.253 168.067 180.773 168.393C179.887 168.393 179.887 169.793 180.773 169.793Z" fill="#180E25"/>
</g>
</g>
<g opacity="0.38">
<g opacity="0.38">
<path opacity="0.38" d="M179.373 178.24C192.16 177.213 204.9 176 217.64 174.6C218.527 174.507 218.527 173.107 217.64 173.2C204.9 174.6 192.16 175.813 179.373 176.84C178.487 176.933 178.487 178.333 179.373 178.24Z" fill="#180E25"/>
</g>
</g>
</svg>
