<svg width="280" height="280" viewBox="0 0 280 280" fill="none" xmlns="http://www.w3.org/2000/svg">
<path d="M70.4198 25.2402C70.4198 26.3602 72.6131 154.507 72.6131 154.507L212.94 180.78L218.026 37.3736L70.4198 25.2402Z" fill="white" stroke="#180E25" stroke-width="0.75" stroke-miterlimit="10"/>
<path d="M70.42 25.2402L14 20.4802L25.8533 161.367L72.6133 154.507L70.42 25.2402Z" fill="white" stroke="#180E25" stroke-width="0.75" stroke-miterlimit="10"/>
<path d="M218.027 37.3739L269.127 36.6272L255.36 210.927L212.94 180.781L218.027 37.3739Z" fill="white" stroke="#180E25" stroke-width="0.75" stroke-miterlimit="10"/>
<path d="M41.9531 22.8135L52.8264 157.4" stroke="#180E25" stroke-width="3" stroke-miterlimit="10"/>
<path d="M18.0599 68.4999L70.4199 66.3999" stroke="#180E25" stroke-width="3" stroke-miterlimit="10"/>
<path d="M22.3069 119.087L71.9135 113.114" stroke="#180E25" stroke-width="3" stroke-miterlimit="10"/>
<path d="M239.26 37.0469L230.907 193.52" stroke="#180E25" stroke-width="3" stroke-miterlimit="10"/>
<path d="M214.527 136.073L259.7 156.14" stroke="#180E25" stroke-width="3" stroke-miterlimit="10"/>
<path d="M216.673 75.9204L265.347 84.9271" stroke="#180E25" stroke-width="3" stroke-miterlimit="10"/>
<path d="M123.106 152.967C122.92 156.514 122.733 160.06 122.546 163.607C138.086 166.547 153.673 169.44 169.213 172.38C169.12 171.307 169.073 169.907 168.933 168.273C168.466 161.18 168.326 159.687 168.046 157.68C167.86 156.42 167.533 154.554 166.973 152.267C152.32 152.5 137.713 152.734 123.106 152.967Z" fill="white"/>
<path d="M122.92 152.967C122.78 156.233 122.593 159.453 122.453 162.72C122.453 162.953 122.78 162.953 122.826 162.72C122.966 159.453 123.153 156.233 123.293 152.967C123.293 152.733 122.966 152.733 122.92 152.967Z" fill="#180E25"/>
<path d="M167.3 153.714C168.047 158.801 168.513 163.887 168.793 169.02C168.793 169.254 169.167 169.254 169.167 169.02C168.933 163.841 168.42 158.707 167.673 153.621C167.627 153.434 167.3 153.527 167.3 153.714Z" fill="#180E25"/>
<path d="M140.606 164.634C141.586 165.52 142.52 166.454 143.36 167.48C143.5 167.667 143.733 167.387 143.593 167.247C142.753 166.22 141.82 165.287 140.84 164.4C140.7 164.26 140.466 164.494 140.606 164.634Z" fill="#180E25"/>
<path d="M116.667 77.8802C116.247 79.2802 115.64 81.4268 115.267 84.0868C114.8 87.3535 114.894 89.7802 114.987 92.6735C115.36 102.66 115.547 107.794 116.2 113.534C116.48 116.1 116.807 118.247 117.087 120.3C117.974 126.367 119.747 137.054 123.107 152.874C124.6 153.667 126.7 154.694 129.267 155.627C136.407 158.287 142.707 158.754 146.58 158.754C151.9 158.754 156.007 157.96 158.2 157.447C161.794 156.607 164.78 155.44 167.067 154.414C167.347 152.594 167.767 149.794 168.28 146.387C169.214 140.507 170.007 136.167 170.147 135.42C171.034 130.474 172.574 119.087 175.42 92.3002C174.954 91.1335 174.16 89.4068 172.62 87.8668C169.074 84.2268 164.267 83.9002 160.487 83.4802C149.52 82.2202 152.6 80.6335 139.487 78.8602C130.994 77.8802 123.294 77.6469 116.667 77.8802Z" fill="#6A3EA1"/>
<path d="M116.667 78.0667C135.8 77.4134 154.84 80.82 172.527 88.1467C172.713 88.24 172.807 87.9133 172.62 87.82C154.933 80.4933 135.8 77.04 116.667 77.74C116.433 77.74 116.433 78.0667 116.667 78.0667Z" fill="#180E25"/>
<path d="M115.033 86.0463C113.727 108.4 118.347 130.426 123.013 152.126C123.06 152.36 123.387 152.266 123.34 152.033C118.673 130.333 114.1 108.353 115.407 86.0463C115.407 85.8596 115.08 85.8596 115.033 86.0463Z" fill="#180E25"/>
<path d="M124.133 153.62C137.527 160.34 153.44 160.714 167.16 154.647C167.347 154.554 167.207 154.274 166.973 154.367C153.393 160.434 137.573 160.06 124.32 153.34C124.087 153.247 123.947 153.527 124.133 153.62Z" fill="#180E25"/>
<path d="M174.813 93.1398C173.367 113.16 170.753 133.087 166.927 152.78C166.88 153.013 167.207 153.106 167.253 152.873C171.033 133.133 173.693 113.16 175.14 93.1398C175.14 92.9065 174.813 92.9065 174.813 93.1398Z" fill="#180E25"/>
<path d="M131.133 76.8069C130.806 76.9003 129.686 77.2736 128.146 77.3203C127.633 77.3669 126.7 77.3669 125.58 77.1336C124.506 76.9003 123.293 76.6669 122.313 75.6869C120.68 74.1003 120.82 71.8136 120.866 71.4869C121.006 69.9003 121.8 68.8736 122.5 67.8936C124.18 65.7003 126.28 64.8136 126.793 64.6269C128.753 63.8803 130.433 63.9736 131.506 64.0203C133 64.1136 134.866 64.8603 138.6 66.3069C139.58 66.6803 141.586 67.4736 144.106 68.7336C146.253 69.8069 146.813 70.2736 147.28 70.8336C148.633 72.4203 148.866 74.3336 148.96 75.2203C149.1 76.3403 149.24 77.3669 148.82 78.3936C148.12 80.2603 145.973 81.6603 144.013 81.8936C138.88 82.5936 134.913 75.7803 131.133 76.8069Z" fill="#180E25"/>
<path d="M130.153 77.0401C130.106 77.8334 130.106 79.0001 130.34 80.3534C130.573 81.8468 130.853 83.4801 132.02 85.1601C133 86.5601 134.166 87.3534 134.866 87.7734C135.333 88.0534 136.546 88.7068 138.32 88.9401C138.973 89.0334 140.466 89.1734 142.24 88.6134C144.2 88.0068 145.46 86.9801 145.786 86.7001C146.673 85.9068 147.233 85.1134 147.466 84.6468C147.933 83.8534 149.426 81.3801 148.586 78.6734C148.166 77.2734 147.28 76.3868 146.953 76.0601C145.553 74.7068 143.966 74.2868 143.313 74.1934C140.933 74.0534 139.16 74.4268 137.946 74.8001C136.173 75.3601 135.053 76.1534 132.533 76.7134C131.6 76.9001 130.713 76.9934 130.153 77.0401Z" fill="white"/>
<path d="M130.013 77.0402C130.06 79.9335 130.247 82.9668 132.02 85.3935C133.607 87.5868 136.127 88.9402 138.833 89.1735C144.107 89.5469 149.613 85.3468 148.586 79.7468C148.54 79.5135 148.213 79.6068 148.26 79.8402C149.38 85.9068 142.66 89.9202 137.34 88.5668C131.88 87.1668 130.527 82.0802 130.433 77.0868C130.34 76.8068 130.013 76.8068 130.013 77.0402Z" fill="#180E25"/>
<path d="M136.92 77.9266C136.5 79.6066 135.333 85.0199 138.133 85.2066C138.366 85.2066 138.366 84.8799 138.133 84.8332C137.713 84.4132 137.34 84.0399 136.92 83.6199C136.873 83.2466 136.826 82.8266 136.78 82.4532C136.733 81.9866 136.733 81.5666 136.78 81.0999C136.826 80.0266 136.966 78.9999 137.246 77.9732C137.293 77.8332 136.966 77.7399 136.92 77.9266Z" fill="#180E25"/>
<path d="M137.106 74.8466C132.86 76.1533 126.373 79.1866 122.453 75.5933C117.973 71.5333 124.086 65.42 128.146 64.3467C132.486 63.18 138.6 66.4 142.426 68.1733C144.106 68.9667 146.113 69.76 147.326 71.2066C149.1 73.2133 148.866 76.0133 148.633 78.4866C148.633 78.72 148.96 78.72 149.006 78.4866C149.193 76.1533 149.426 73.54 148.026 71.5333C146.626 69.48 143.966 68.5 141.773 67.52C136.873 65.3266 130.573 62.0133 125.486 65.1867C122.313 67.1466 118.673 71.6733 121.706 75.36C125.393 79.84 132.906 76.5266 137.2 75.1733C137.386 75.1266 137.293 74.7533 137.106 74.8466Z" fill="#180E25"/>
<path d="M137.432 75.1266C141.679 73.96 146.626 73.68 148.446 78.72C148.539 78.9533 148.866 78.86 148.772 78.6267C146.906 73.4 141.819 73.5866 137.339 74.8C137.106 74.8466 137.199 75.1733 137.432 75.1266Z" fill="#180E25"/>
<path d="M134.68 81.0066C134.963 81.0066 135.193 80.6514 135.193 80.2133C135.193 79.7751 134.963 79.4199 134.68 79.4199C134.396 79.4199 134.166 79.7751 134.166 80.2133C134.166 80.6514 134.396 81.0066 134.68 81.0066Z" fill="#180E25"/>
<path d="M142.146 81.0066C142.43 81.0066 142.66 80.6514 142.66 80.2133C142.66 79.7751 142.43 79.4199 142.146 79.4199C141.863 79.4199 141.633 79.7751 141.633 80.2133C141.633 80.6514 141.863 81.0066 142.146 81.0066Z" fill="#180E25"/>
<path d="M129.173 80.0263C129.5 79.5597 130.246 78.673 131.506 78.1597C131.926 77.973 133.606 77.273 135.38 78.0197C137.48 78.8597 138.133 80.9596 138.226 81.333C138.32 81.6596 139.066 84.1796 137.433 86.233C137.246 86.4663 136.266 87.7263 135.006 87.8663C132.953 88.0996 130.293 85.0196 129.173 80.0263Z" fill="#180E25"/>
<path d="M129.733 79.6529C129.313 79.9796 128.567 80.5862 128.007 81.5196C127.213 82.9196 127.167 84.2729 127.167 85.0196C127.167 85.3462 127.307 86.6062 128.053 87.9129C128.473 88.6129 129.033 89.5929 130.2 90.1062C131.553 90.7129 132.86 90.3396 133.327 90.2462C133.653 90.1529 134.587 89.8729 135.473 89.0796C135.66 88.8929 136.407 88.1929 136.873 86.9796C137.34 85.7662 137.247 84.7396 137.2 84.2729C137.107 83.0596 136.687 82.2196 136.547 81.9396C136.407 81.7062 135.987 80.8662 135.053 80.0262C134.68 79.6996 134.167 79.2329 133.467 78.9996C131.787 78.3929 130.107 79.3729 129.733 79.6529Z" fill="white"/>
<path d="M121.146 92.2997C121.706 90.993 122.313 89.6397 122.873 88.333C123.013 86.7463 123.386 84.4597 124.6 81.9863C125.3 80.5863 126.326 78.5797 128.566 76.853C130.853 75.0797 133.233 74.5197 134.54 74.333C135.52 75.313 135.846 76.6197 135.426 77.5997C135.333 77.833 135.146 78.1597 134.726 78.4863C134.213 78.3463 132.16 77.973 130.2 79.1863C128.893 79.9797 128.24 81.0997 128.006 81.5663C127.12 83.153 127.166 84.693 127.166 85.0663C127.213 85.533 127.26 86.7463 128.053 87.9597C128.893 89.2197 129.966 89.8263 130.48 90.0597C131.273 90.0597 131.88 90.5263 132.02 91.0863C132.113 91.553 131.88 91.9263 131.88 91.973C131.786 92.113 131.6 92.393 130.993 92.5797C130.2 92.813 129.546 92.673 128.8 92.5797C127.586 92.393 127.026 92.2997 126.373 92.3463C124.693 92.393 124.226 93.1863 122.873 93.0463C122.173 92.9063 121.52 92.5797 121.146 92.2997Z" fill="white"/>
<path d="M116.667 77.8799C115.687 78.1599 114.333 78.5332 112.7 79.0932C111.627 79.4665 108.64 80.4932 103.18 83.1532C99.4 84.9732 96.74 86.3265 93.3333 88.5199C90.0666 90.6665 88.7133 91.9265 87.8266 92.8599C87.1266 93.6065 85.26 95.7065 84.0466 98.8332C83.1133 101.167 83.2533 102.24 83.3933 102.8C83.8133 104.573 85.2133 105.6 85.4466 105.787C86.0533 106.207 87.3133 106.907 91.1866 106.533C93.5666 106.3 95.34 105.833 97.3466 105.227C100.613 104.247 102.853 103.593 105.98 102.333C107.847 101.587 111.067 100.327 115.033 98.0865C117.647 96.6399 120.96 94.5399 124.507 91.7399C124.507 91.3199 124.507 90.6199 124.18 89.8265C123.76 88.7999 123.107 88.1932 122.78 87.9599C121.427 88.4265 119.747 88.7999 117.833 88.8932C117.18 88.9399 116.527 88.9399 115.92 88.8932C116.153 85.2999 116.433 81.6132 116.667 77.8799Z" fill="#6A3EA1"/>
<path d="M115.593 77.8798C107.613 80.6798 99.6331 84.1798 92.5864 88.8465C89.6931 90.7598 86.9864 93.0465 85.2131 96.0798C83.9531 98.2265 82.4598 101.633 83.5331 104.106C84.7931 106.953 88.9464 107 91.5131 106.72C95.3398 106.3 99.1664 105.04 102.76 103.78C110.46 101.12 117.693 97.2931 124.273 92.4865C124.46 92.3465 124.273 92.0665 124.086 92.2065C118.626 96.1731 112.746 99.5331 106.493 102.053C103.506 103.266 100.426 104.293 97.2531 105.133C95.6197 105.553 93.9864 105.973 92.3064 106.253C90.2531 106.58 86.8464 106.953 85.1198 105.46C84.6064 104.48 84.0464 103.546 83.5331 102.566C83.5331 101.82 83.5798 101.12 83.7664 100.373C83.9998 99.3931 84.3264 98.4598 84.7464 97.5731C85.4931 95.9865 86.5664 94.5398 87.7331 93.2331C90.1598 90.6198 93.1931 88.7531 96.2264 86.9798C102.433 83.4798 108.92 80.5398 115.64 78.1598C115.873 78.1598 115.78 77.8331 115.593 77.8798Z" fill="#180E25"/>
<path d="M96.9265 91.0868C105.56 90.4335 114.147 89.5468 122.733 88.4268C122.967 88.3801 122.967 88.0535 122.733 88.0535C114.147 89.1735 105.56 90.0601 96.9265 90.7135C96.6932 90.7601 96.6932 91.0868 96.9265 91.0868Z" fill="#180E25"/>
<path d="M122.78 88.4265C123.853 89.2198 124.413 90.4798 124.32 91.8332C124.32 92.0665 124.646 92.0665 124.693 91.8332C124.786 90.3865 124.133 89.0332 122.966 88.1465C122.78 87.9598 122.64 88.2865 122.78 88.4265Z" fill="#180E25"/>
<path d="M126.046 91.7863C127.446 92.4863 130.993 93.793 132.113 92.0196C133.186 90.293 130.433 90.1996 129.64 89.593C129.453 89.453 129.22 89.6863 129.406 89.8263C129.64 90.013 129.873 90.153 130.153 90.2463C130.386 90.3396 130.666 90.3863 130.946 90.433C131.553 90.6196 131.6 90.573 131.646 91.3196C131.926 91.8796 131.74 92.2063 131.133 92.2063C130.853 92.393 130.526 92.4863 130.153 92.4396C129.733 92.4863 129.313 92.393 128.94 92.3463C128.006 92.2063 127.12 91.9263 126.233 91.4596C126 91.413 125.813 91.693 126.046 91.7863Z" fill="#180E25"/>
<path d="M126.887 84.9263C126.98 80.6797 131.413 77.7397 135.38 79.513C135.567 79.6063 135.753 79.2797 135.567 79.233C131.367 77.3663 126.653 80.3997 126.56 84.973C126.56 85.1597 126.887 85.1597 126.887 84.9263Z" fill="#180E25"/>
<path d="M126.7 80.1667C129.08 77.9267 132.066 76.6667 135.333 76.5267C135.566 76.5267 135.566 76.1533 135.333 76.1533C131.973 76.2933 128.893 77.6 126.466 79.8867C126.326 80.0733 126.56 80.3533 126.7 80.1667Z" fill="#180E25"/>
<path d="M126.466 78.9533C128.66 76.62 131.46 75.08 134.586 74.4733C134.82 74.4266 134.726 74.1 134.493 74.1466C131.273 74.7533 128.426 76.34 126.186 78.72C126.093 78.86 126.326 79.0933 126.466 78.9533Z" fill="#180E25"/>
<path d="M132.3 90.3868C135.109 90.3868 137.386 87.796 137.386 84.6001C137.386 81.4043 135.109 78.8135 132.3 78.8135C129.49 78.8135 127.213 81.4043 127.213 84.6001C127.213 87.796 129.49 90.3868 132.3 90.3868Z" stroke="#180E25" stroke-width="0.75" stroke-miterlimit="10"/>
<path d="M137.387 84.6001C137.247 83.9934 137.107 82.8734 137.433 81.6134C138.18 78.9534 140.56 77.7868 140.98 77.6001C141.307 77.4601 143.407 76.6201 145.507 77.7401C145.833 77.9268 147.373 78.7668 147.933 80.4001C148.12 80.9134 148.073 81.1468 147.98 83.6668C147.84 86.5134 147.84 86.6068 147.747 86.7934C146.533 88.5201 139.953 85.7668 137.387 84.6001Z" fill="#180E25"/>
<path d="M140.047 79.7C139.58 79.98 138.647 80.6333 137.947 81.8933C137.713 82.3133 137.013 83.7133 137.293 85.5333C137.34 85.9067 137.713 87.9133 139.58 89.2667C141.54 90.6667 143.64 90.34 144.107 90.2467C145.553 89.9667 146.44 89.22 146.907 88.8467C147.373 88.4733 148.82 87.2133 149.24 85.02C149.66 82.9667 148.913 81.3333 148.54 80.5867C148.167 79.8867 147.28 78.3467 145.553 77.7867C143.687 77.18 141.54 77.9733 140.047 79.7Z" fill="white"/>
<path d="M172.574 88.0068C173.227 88.2401 174.16 88.6135 175.234 89.1268C177.38 90.1068 180.6 91.6468 183.867 94.6801C184.987 95.7068 187.087 97.8535 189 101.073C190.54 103.687 191.287 105.927 191.614 106.907C191.987 108.073 192.22 109.1 192.36 109.893C192.267 110.36 192.034 111.107 191.52 111.807C191.334 112.087 190.68 112.88 189.327 113.58C188.3 114.093 186.807 114.513 183.867 114.373C180.927 114.233 178.734 113.58 178.08 113.393C175.467 112.647 171.314 111.387 166.6 108.167C163.754 106.253 161.84 104.247 158.06 100.327C155.68 97.8535 152.74 94.5868 149.614 90.6668C149.66 90.1068 149.847 88.8935 150.78 87.7268C151.294 87.0735 151.854 86.7001 152.227 86.4668C154.887 87.7268 157.734 88.9401 160.72 90.1535C163.847 91.3668 166.834 92.4401 169.68 93.3735C170.66 91.5535 171.64 89.7801 172.574 88.0068Z" fill="#6A3EA1"/>
<path d="M151.947 88.3331C152.227 87.6331 152.553 86.4665 152.46 85.0198C152.367 83.3865 151.76 82.2198 151.153 81.1931C150.36 79.7465 149.613 78.3465 147.933 77.4131C147.327 77.0865 145.74 76.1998 143.78 76.6198C141.26 77.1798 140.14 79.4665 140 79.7931C140.42 79.5598 141.727 78.8598 143.453 79.0465C145.367 79.2798 146.533 80.4465 146.907 80.8198C147.14 81.0531 147.98 81.9865 148.353 83.5265C148.493 84.0865 148.82 85.5331 148.12 87.1198C148.027 87.3065 147.653 88.1465 146.813 88.8931C145.367 90.1998 143.64 90.3865 142.893 90.4332C142.193 90.4798 141.587 90.4331 141.167 90.3865C141.54 90.8065 142.38 91.5065 143.593 91.7865C146.253 92.3932 148.353 90.3398 148.493 90.1531C149.24 90.4798 150.033 90.7598 150.78 91.0865C151.247 90.1065 151.62 89.2198 151.947 88.3331Z" fill="white"/>
<path d="M142.987 90.3399C146.157 90.3399 148.727 87.77 148.727 84.5999C148.727 81.4298 146.157 78.8599 142.987 78.8599C139.817 78.8599 137.247 81.4298 137.247 84.5999C137.247 87.77 139.817 90.3399 142.987 90.3399Z" stroke="#180E25" stroke-width="0.75" stroke-miterlimit="10"/>
<path d="M141.167 90.3864C143.033 92.7664 146.114 91.8797 148.354 90.6197C148.54 90.5264 148.354 90.1997 148.167 90.3397C146.067 91.553 143.173 92.4397 141.4 90.1997C141.26 89.9664 141.027 90.2464 141.167 90.3864Z" fill="#180E25"/>
<path d="M140.093 78.7197C140.327 78.7197 140.327 78.3464 140.093 78.3464C139.86 78.3464 139.86 78.7197 140.093 78.7197Z" fill="#180E25"/>
<path d="M140.467 78.9997C141.914 77.6931 144.06 77.7397 145.88 77.9731C146.114 78.0197 146.114 77.6464 145.88 77.5997C143.967 77.3664 141.727 77.3664 140.234 78.7197C140.047 78.9064 140.28 79.1397 140.467 78.9997Z" fill="#180E25"/>
<path d="M142.987 77.1333C145.04 76.76 147.047 77.46 148.447 79C148.587 79.1867 148.867 78.9067 148.68 78.7667C147.187 77.1333 145.087 76.4333 142.893 76.8066C142.66 76.8533 142.753 77.18 142.987 77.1333Z" fill="#180E25"/>
<path d="M148.213 78.0202C150.687 79.9802 152.18 82.7335 152.367 85.9068C152.367 86.1402 152.74 86.1402 152.74 85.9068C152.553 82.6868 151.06 79.7935 148.493 77.7868C148.307 77.6468 148.027 77.8802 148.213 78.0202Z" fill="#180E25"/>
<path d="M152.134 86.28C150.64 87.2133 149.66 88.7067 149.474 90.4333C149.427 90.6667 149.8 90.6667 149.847 90.4333C150.034 88.8 150.967 87.4 152.367 86.56C152.46 86.4667 152.32 86.14 152.134 86.28Z" fill="#180E25"/>
<path d="M152.553 86.6535C159.227 89.9668 166.133 92.6735 173.273 94.8668C173.507 94.9135 173.6 94.5868 173.367 94.5402C166.273 92.3468 159.367 89.6402 152.74 86.3735C152.553 86.2802 152.367 86.5602 152.553 86.6535Z" fill="#180E25"/>
<path d="M172.387 88.3332C182.327 91.1799 190.027 99.4866 192.127 109.613C192.174 109.847 192.5 109.753 192.454 109.52C190.307 99.2999 182.514 90.8999 172.48 88.0066C172.294 87.9133 172.2 88.2399 172.387 88.3332Z" fill="#180E25"/>
<path d="M149.427 90.713C155.353 98.553 162.68 106.16 171.453 110.826C176.4 113.44 190.4 118.48 192.547 109.893C192.593 109.66 192.267 109.566 192.22 109.8C190.867 115.26 183.54 114.513 179.293 113.486C175.373 112.553 171.733 110.78 168.373 108.586C161.14 103.873 154.933 97.433 149.753 90.573C149.613 90.3397 149.287 90.5263 149.427 90.713Z" fill="#180E25"/>
<path d="M95.8063 156.701L86.2397 156.141L84.0463 136.821H98.2796L95.8063 156.701Z" fill="#F8C715"/>
<path d="M91.1866 138.781C95.1041 138.781 98.2799 138.028 98.2799 137.101C98.2799 136.173 95.1041 135.421 91.1866 135.421C87.2691 135.421 84.0933 136.173 84.0933 137.101C84.0933 138.028 87.2691 138.781 91.1866 138.781Z" fill="white" stroke="#180E25" stroke-width="0.75" stroke-miterlimit="10"/>
<path d="M91.14 137.567C91.0933 132.667 93.4733 127.393 90.3466 122.913C89.8333 122.167 88.62 122.867 89.1333 123.613C92.0733 127.767 89.6933 132.947 89.74 137.567C89.74 138.453 91.14 138.453 91.14 137.567Z" fill="#725A03"/>
<path d="M93.3329 118.154C93.4262 121.28 91.5129 124.827 90.4862 127.72C90.2062 128.56 91.5595 128.934 91.8395 128.094C92.9129 124.967 94.8262 121.467 94.7329 118.154C94.7329 117.267 93.3329 117.267 93.3329 118.154Z" fill="#725A03"/>
<path d="M85.3531 125.294C86.9398 127.114 86.6598 129.494 87.3131 131.64C87.7331 133.134 88.5731 134.347 89.6931 135.327C90.3464 135.934 91.3731 134.954 90.6731 134.347C87.5931 131.64 88.8998 127.254 86.3331 124.314C85.7264 123.614 84.7464 124.64 85.3531 125.294Z" fill="#725A03"/>
<path d="M153.207 175.974C153.627 179.754 153.767 184.28 153.253 189.367C152.367 198.654 149.613 206.027 147.233 211.067C150.827 212.607 154.84 214.054 159.227 215.36C167.72 217.88 175.513 219.094 182.093 219.654C184.333 214.8 186.76 208.454 188.393 200.8C189.793 194.174 190.26 188.2 190.353 183.347C187.133 182.694 183.913 181.994 180.693 181.34C181.16 184.747 179.667 187.967 176.96 189.647C174.86 190.907 172.2 191.14 170.1 190.207C166.46 188.62 164.36 183.72 165.76 178.447C161.607 177.654 157.407 176.814 153.207 175.974Z" fill="#F8C715"/>
<path d="M74.993 160.433C75.413 163.093 75.8797 167.06 76.0197 171.867C76.2997 182.553 74.573 188.62 73.8263 196.367C73.2663 202.34 73.1263 210.833 75.1797 221.38C77.513 221.8 81.1063 222.687 85.073 224.693C96.413 230.433 98.093 238.927 105.98 242.567C110.18 244.527 117.086 245.46 128.52 240.093C128.893 237.947 129.5 234.68 130.433 230.76C133 219.887 135.893 212.327 136.78 209.853C139.253 202.853 141.26 191.56 138.693 173.127C117.46 168.88 96.2263 164.633 74.993 160.433Z" fill="white" stroke="#180E25" stroke-width="0.75" stroke-miterlimit="10"/>
<path d="M35.9801 194.5C34.6267 197.767 32.9934 202.76 32.8067 208.92C32.6201 215.78 34.3467 219.56 35.0934 224.507C35.9334 230.153 35.6067 238.413 30.0067 249.473C33.4601 250.267 36.9601 251.153 40.5067 252.04C52.8267 255.12 64.6801 258.48 76.0201 262.027C78.4001 254.047 79.0067 247.513 79.1001 243.22C79.4267 230.713 76.1601 223.013 79.9401 212C81.0601 208.733 82.4601 206.307 83.2534 204.953C67.5267 201.5 51.7534 198 35.9801 194.5Z" fill="#F8C715"/>
<path d="M98.1863 185.821C98.6997 191.421 99.1197 197.254 99.3997 203.227C100.146 220.447 99.633 236.501 98.2797 251.107C100.426 251.154 103.553 251.294 107.38 251.947C116.853 253.487 122.78 256.661 126.933 258.294C132.86 260.627 141.913 262.494 155.26 259.927C156.1 250.921 155.68 243.594 155.073 238.274C153.953 228.754 152.133 224.974 152.226 217.554C152.366 209.201 154.84 202.294 157.22 197.347C137.526 193.521 117.88 189.647 98.1863 185.821Z" fill="white" stroke="#180E25" stroke-width="0.75" stroke-miterlimit="10"/>
<path d="M72.6132 154.507L11.5266 202.573" stroke="#180E25" stroke-width="3" stroke-miterlimit="10"/>
<path d="M212.94 180.78L148.353 244.854" stroke="#180E25" stroke-width="3" stroke-miterlimit="10"/>
<path d="M24.8734 192.027L168.98 224.087" stroke="#180E25" stroke-miterlimit="10"/>
<path d="M45.7796 175.6L189.84 203.693" stroke="#180E25" stroke-miterlimit="10"/>
<path d="M67.0599 158.847L207.013 186.66" stroke="#180E25" stroke-miterlimit="10"/>
<path d="M43.4933 193.1C43.0733 194.78 42.6533 196.46 42.2333 198.094C42 198.98 43.3533 199.354 43.5866 198.467C44.0066 196.787 44.4266 195.107 44.8466 193.474C45.0333 192.587 43.6799 192.214 43.4933 193.1Z" fill="#180E25"/>
<path d="M43.4468 195.854C44.0068 196.274 44.6135 196.74 45.1735 197.16C45.4535 197.394 45.9668 197.207 46.1535 196.927C46.3401 196.554 46.2001 196.18 45.9201 195.947C45.3601 195.527 44.7535 195.06 44.1935 194.64C43.9135 194.407 43.4001 194.594 43.2135 194.874C42.9801 195.247 43.1201 195.62 43.4468 195.854Z" fill="#180E25"/>
<path d="M65.94 197.254C65.1934 199.027 64.4 200.754 63.6533 202.527C63.28 203.367 64.4933 204.067 64.8667 203.227C65.6133 201.454 66.4067 199.727 67.1533 197.954C67.48 197.114 66.2667 196.414 65.94 197.254Z" fill="#180E25"/>
<path d="M64.9135 200.894C65.6135 201.407 66.3601 201.92 67.0601 202.434C67.8068 202.947 68.5068 201.734 67.7601 201.22C67.0601 200.707 66.3135 200.194 65.6135 199.68C64.9135 199.167 64.2135 200.38 64.9135 200.894Z" fill="#180E25"/>
<path d="M85.68 159.733C85.54 160.9 85.4 162.113 85.26 163.28C85.1666 164.166 86.5666 164.166 86.66 163.28C86.8 162.113 86.94 160.9 87.08 159.733C87.1733 158.846 85.7733 158.846 85.68 159.733Z" fill="#180E25"/>
<path d="M118.206 166.827C118.206 168.32 118.02 169.72 117.553 171.167C117.273 172.007 118.626 172.38 118.906 171.54C119.373 170 119.606 168.46 119.606 166.827C119.56 165.94 118.16 165.94 118.206 166.827Z" fill="#180E25"/>
<path d="M116.293 187.314C115.733 188.714 115.5 190.207 115.593 191.7C115.64 192.587 117.04 192.587 116.993 191.7C116.9 190.3 117.133 188.994 117.6 187.687C117.973 186.847 116.62 186.474 116.293 187.314Z" fill="#180E25"/>
<path d="M144.247 193.427C144.013 194.594 143.827 195.807 143.593 196.974C143.453 197.86 144.76 198.234 144.947 197.347C145.18 196.18 145.367 194.967 145.6 193.8C145.787 192.914 144.433 192.54 144.247 193.427Z" fill="#180E25"/>
<path d="M159.133 175.88C159.133 176.3 159.04 176.673 158.713 177C158.06 177.653 159.04 178.633 159.693 177.98C160.253 177.42 160.58 176.673 160.533 175.88C160.486 174.993 159.086 174.993 159.133 175.88Z" fill="#180E25"/>
<path d="M186.573 181.153C186.387 181.9 186.247 182.693 186.06 183.44C185.873 184.327 187.227 184.7 187.413 183.813C187.6 183.067 187.74 182.273 187.927 181.527C188.113 180.64 186.76 180.267 186.573 181.153Z" fill="#180E25"/>
</svg>
