<svg width="280" height="280" viewBox="0 0 280 280" fill="none" xmlns="http://www.w3.org/2000/svg">
<path d="M70.4198 37.2402C70.4198 38.3602 72.6131 166.507 72.6131 166.507L212.94 192.78L218.026 49.3736L70.4198 37.2402Z" fill="white" stroke="#180E25" stroke-width="0.75" stroke-miterlimit="10"/>
<path d="M70.42 37.2402L14 32.4802L25.8533 173.367L72.6133 166.507L70.42 37.2402Z" fill="white" stroke="#180E25" stroke-width="0.75" stroke-miterlimit="10"/>
<path d="M218.027 49.3739L269.127 48.6272L255.36 222.927L212.94 192.781L218.027 49.3739Z" fill="white" stroke="#180E25" stroke-width="0.75" stroke-miterlimit="10"/>
<path d="M41.9531 34.8135L52.8264 169.4" stroke="#180E25" stroke-width="3" stroke-miterlimit="10"/>
<path d="M18.0599 80.4999L70.4199 78.3999" stroke="#180E25" stroke-width="3" stroke-miterlimit="10"/>
<path d="M22.3069 131.087L71.9135 125.114" stroke="#180E25" stroke-width="3" stroke-miterlimit="10"/>
<path d="M239.26 49.0469L230.907 205.52" stroke="#180E25" stroke-width="3" stroke-miterlimit="10"/>
<path d="M214.527 148.073L259.7 168.14" stroke="#180E25" stroke-width="3" stroke-miterlimit="10"/>
<path d="M216.673 87.9204L265.347 96.9271" stroke="#180E25" stroke-width="3" stroke-miterlimit="10"/>
<path d="M123.106 164.967C122.92 168.514 122.733 172.06 122.546 175.607C138.086 178.547 153.673 181.44 169.213 184.38C169.12 183.307 169.073 181.907 168.933 180.273C168.466 173.18 168.326 171.687 168.046 169.68C167.86 168.42 167.533 166.554 166.973 164.267C152.32 164.5 137.713 164.734 123.106 164.967Z" fill="white"/>
<path d="M122.92 164.967C122.78 168.233 122.593 171.453 122.453 174.72C122.453 174.953 122.78 174.953 122.826 174.72C122.966 171.453 123.153 168.233 123.293 164.967C123.293 164.733 122.966 164.733 122.92 164.967Z" fill="#180E25"/>
<path d="M167.3 165.714C168.047 170.801 168.513 175.887 168.793 181.02C168.793 181.254 169.167 181.254 169.167 181.02C168.933 175.841 168.42 170.707 167.673 165.621C167.627 165.434 167.3 165.527 167.3 165.714Z" fill="#180E25"/>
<path d="M140.606 176.634C141.586 177.52 142.52 178.454 143.36 179.48C143.5 179.667 143.733 179.387 143.593 179.247C142.753 178.22 141.82 177.287 140.84 176.4C140.7 176.26 140.466 176.494 140.606 176.634Z" fill="#180E25"/>
<path d="M116.667 89.8802C116.247 91.2802 115.64 93.4268 115.267 96.0868C114.8 99.3535 114.894 101.78 114.987 104.674C115.36 114.66 115.547 119.794 116.2 125.534C116.48 128.1 116.807 130.247 117.087 132.3C117.974 138.367 119.747 149.054 123.107 164.874C124.6 165.667 126.7 166.694 129.267 167.627C136.407 170.287 142.707 170.754 146.58 170.754C151.9 170.754 156.007 169.96 158.2 169.447C161.794 168.607 164.78 167.44 167.067 166.414C167.347 164.594 167.767 161.794 168.28 158.387C169.214 152.507 170.007 148.167 170.147 147.42C171.034 142.474 172.574 131.087 175.42 104.3C174.954 103.134 174.16 101.407 172.62 99.8668C169.074 96.2268 164.267 95.9002 160.487 95.4802C149.52 94.2202 152.6 92.6335 139.487 90.8602C130.994 89.8802 123.294 89.6469 116.667 89.8802Z" fill="#6A3EA1"/>
<path d="M116.667 90.0667C135.8 89.4134 154.84 92.82 172.527 100.147C172.713 100.24 172.807 99.9133 172.62 99.82C154.933 92.4933 135.8 89.04 116.667 89.74C116.433 89.74 116.433 90.0667 116.667 90.0667Z" fill="#180E25"/>
<path d="M115.033 98.0463C113.727 120.4 118.347 142.426 123.013 164.126C123.06 164.36 123.387 164.266 123.34 164.033C118.673 142.333 114.1 120.353 115.407 98.0463C115.407 97.8596 115.08 97.8596 115.033 98.0463Z" fill="#180E25"/>
<path d="M124.133 165.62C137.527 172.34 153.44 172.714 167.16 166.647C167.347 166.554 167.207 166.274 166.973 166.367C153.393 172.434 137.573 172.06 124.32 165.34C124.087 165.247 123.947 165.527 124.133 165.62Z" fill="#180E25"/>
<path d="M174.813 105.14C173.367 125.16 170.753 145.087 166.927 164.78C166.88 165.013 167.207 165.106 167.253 164.873C171.033 145.133 173.693 125.16 175.14 105.14C175.14 104.907 174.813 104.907 174.813 105.14Z" fill="#180E25"/>
<path d="M131.133 88.8069C130.806 88.9003 129.686 89.2736 128.146 89.3203C127.633 89.3669 126.7 89.3669 125.58 89.1336C124.506 88.9003 123.293 88.6669 122.313 87.6869C120.68 86.1003 120.82 83.8136 120.866 83.4869C121.006 81.9003 121.8 80.8736 122.5 79.8936C124.18 77.7003 126.28 76.8136 126.793 76.6269C128.753 75.8803 130.433 75.9736 131.506 76.0203C133 76.1136 134.866 76.8603 138.6 78.3069C139.58 78.6803 141.586 79.4736 144.106 80.7336C146.253 81.8069 146.813 82.2736 147.28 82.8336C148.633 84.4203 148.866 86.3336 148.96 87.2203C149.1 88.3403 149.24 89.3669 148.82 90.3936C148.12 92.2603 145.973 93.6603 144.013 93.8936C138.88 94.5936 134.913 87.7803 131.133 88.8069Z" fill="#180E25"/>
<path d="M130.153 89.0401C130.106 89.8334 130.106 91.0001 130.34 92.3534C130.573 93.8468 130.853 95.4801 132.02 97.1601C133 98.5601 134.166 99.3534 134.866 99.7734C135.333 100.053 136.546 100.707 138.32 100.94C138.973 101.033 140.466 101.173 142.24 100.613C144.2 100.007 145.46 98.9801 145.786 98.7001C146.673 97.9068 147.233 97.1134 147.466 96.6468C147.933 95.8534 149.426 93.3801 148.586 90.6734C148.166 89.2734 147.28 88.3868 146.953 88.0601C145.553 86.7068 143.966 86.2868 143.313 86.1934C140.933 86.0534 139.16 86.4268 137.946 86.8001C136.173 87.3601 135.053 88.1534 132.533 88.7134C131.6 88.9001 130.713 88.9934 130.153 89.0401Z" fill="white"/>
<path d="M130.013 89.0402C130.06 91.9335 130.247 94.9668 132.02 97.3935C133.607 99.5868 136.127 100.94 138.833 101.174C144.107 101.547 149.613 97.3468 148.586 91.7468C148.54 91.5135 148.213 91.6068 148.26 91.8402C149.38 97.9068 142.66 101.92 137.34 100.567C131.88 99.1668 130.527 94.0802 130.433 89.0868C130.34 88.8068 130.013 88.8068 130.013 89.0402Z" fill="#180E25"/>
<path d="M136.92 89.9266C136.5 91.6066 135.333 97.0199 138.133 97.2066C138.366 97.2066 138.366 96.8799 138.133 96.8332C137.713 96.4132 137.34 96.0399 136.92 95.6199C136.873 95.2466 136.826 94.8266 136.78 94.4532C136.733 93.9866 136.733 93.5666 136.78 93.0999C136.826 92.0266 136.966 90.9999 137.246 89.9732C137.293 89.8332 136.966 89.7399 136.92 89.9266Z" fill="#180E25"/>
<path d="M137.106 86.8466C132.86 88.1533 126.373 91.1866 122.453 87.5933C117.973 83.5333 124.086 77.42 128.146 76.3467C132.486 75.18 138.6 78.4 142.426 80.1733C144.106 80.9667 146.113 81.76 147.326 83.2066C149.1 85.2133 148.866 88.0133 148.633 90.4866C148.633 90.72 148.96 90.72 149.006 90.4866C149.193 88.1533 149.426 85.54 148.026 83.5333C146.626 81.48 143.966 80.5 141.773 79.52C136.873 77.3266 130.573 74.0133 125.486 77.1867C122.313 79.1466 118.673 83.6733 121.706 87.36C125.393 91.84 132.906 88.5266 137.2 87.1733C137.386 87.1266 137.293 86.7533 137.106 86.8466Z" fill="#180E25"/>
<path d="M137.432 87.1266C141.679 85.96 146.626 85.68 148.446 90.72C148.539 90.9533 148.866 90.86 148.772 90.6267C146.906 85.4 141.819 85.5866 137.339 86.8C137.106 86.8466 137.199 87.1733 137.432 87.1266Z" fill="#180E25"/>
<path d="M134.68 93.0066C134.963 93.0066 135.193 92.6514 135.193 92.2133C135.193 91.7751 134.963 91.4199 134.68 91.4199C134.396 91.4199 134.166 91.7751 134.166 92.2133C134.166 92.6514 134.396 93.0066 134.68 93.0066Z" fill="#180E25"/>
<path d="M142.146 93.0066C142.43 93.0066 142.66 92.6514 142.66 92.2133C142.66 91.7751 142.43 91.4199 142.146 91.4199C141.863 91.4199 141.633 91.7751 141.633 92.2133C141.633 92.6514 141.863 93.0066 142.146 93.0066Z" fill="#180E25"/>
<path d="M129.173 92.0263C129.5 91.5597 130.246 90.673 131.506 90.1597C131.926 89.973 133.606 89.273 135.38 90.0197C137.48 90.8597 138.133 92.9596 138.226 93.333C138.32 93.6596 139.066 96.1796 137.433 98.233C137.246 98.4663 136.266 99.7263 135.006 99.8663C132.953 100.1 130.293 97.0196 129.173 92.0263Z" fill="#180E25"/>
<path d="M129.733 91.6529C129.313 91.9796 128.567 92.5862 128.007 93.5196C127.213 94.9196 127.167 96.2729 127.167 97.0196C127.167 97.3462 127.307 98.6062 128.053 99.9129C128.473 100.613 129.033 101.593 130.2 102.106C131.553 102.713 132.86 102.34 133.327 102.246C133.653 102.153 134.587 101.873 135.473 101.08C135.66 100.893 136.407 100.193 136.873 98.9796C137.34 97.7662 137.247 96.7396 137.2 96.2729C137.107 95.0596 136.687 94.2196 136.547 93.9396C136.407 93.7062 135.987 92.8662 135.053 92.0262C134.68 91.6996 134.167 91.2329 133.467 90.9996C131.787 90.3929 130.107 91.3729 129.733 91.6529Z" fill="white"/>
<path d="M121.146 104.3C121.706 102.993 122.313 101.64 122.873 100.333C123.013 98.7463 123.386 96.4597 124.6 93.9863C125.3 92.5863 126.326 90.5797 128.566 88.853C130.853 87.0797 133.233 86.5197 134.54 86.333C135.52 87.313 135.846 88.6197 135.426 89.5997C135.333 89.833 135.146 90.1597 134.726 90.4863C134.213 90.3463 132.16 89.973 130.2 91.1863C128.893 91.9797 128.24 93.0997 128.006 93.5663C127.12 95.153 127.166 96.693 127.166 97.0663C127.213 97.533 127.26 98.7463 128.053 99.9597C128.893 101.22 129.966 101.826 130.48 102.06C131.273 102.06 131.88 102.526 132.02 103.086C132.113 103.553 131.88 103.926 131.88 103.973C131.786 104.113 131.6 104.393 130.993 104.58C130.2 104.813 129.546 104.673 128.8 104.58C127.586 104.393 127.026 104.3 126.373 104.346C124.693 104.393 124.226 105.186 122.873 105.046C122.173 104.906 121.52 104.58 121.146 104.3Z" fill="white"/>
<path d="M116.667 89.8799C115.687 90.1599 114.333 90.5332 112.7 91.0932C111.627 91.4665 108.64 92.4932 103.18 95.1532C99.4 96.9732 96.74 98.3265 93.3333 100.52C90.0666 102.667 88.7133 103.927 87.8266 104.86C87.1266 105.607 85.26 107.707 84.0466 110.833C83.1133 113.167 83.2533 114.24 83.3933 114.8C83.8133 116.573 85.2133 117.6 85.4466 117.787C86.0533 118.207 87.3133 118.907 91.1866 118.533C93.5666 118.3 95.34 117.833 97.3466 117.227C100.613 116.247 102.853 115.593 105.98 114.333C107.847 113.587 111.067 112.327 115.033 110.087C117.647 108.64 120.96 106.54 124.507 103.74C124.507 103.32 124.507 102.62 124.18 101.827C123.76 100.8 123.107 100.193 122.78 99.9599C121.427 100.427 119.747 100.8 117.833 100.893C117.18 100.94 116.527 100.94 115.92 100.893C116.153 97.2999 116.433 93.6132 116.667 89.8799Z" fill="#6A3EA1"/>
<path d="M115.593 89.8798C107.613 92.6798 99.6331 96.1798 92.5864 100.846C89.6931 102.76 86.9864 105.046 85.2131 108.08C83.9531 110.226 82.4598 113.633 83.5331 116.106C84.7931 118.953 88.9464 119 91.5131 118.72C95.3398 118.3 99.1664 117.04 102.76 115.78C110.46 113.12 117.693 109.293 124.273 104.486C124.46 104.346 124.273 104.066 124.086 104.206C118.626 108.173 112.746 111.533 106.493 114.053C103.506 115.266 100.426 116.293 97.2531 117.133C95.6197 117.553 93.9864 117.973 92.3064 118.253C90.2531 118.58 86.8464 118.953 85.1198 117.46C84.6064 116.48 84.0464 115.546 83.5331 114.566C83.5331 113.82 83.5798 113.12 83.7664 112.373C83.9998 111.393 84.3264 110.46 84.7464 109.573C85.4931 107.986 86.5664 106.54 87.7331 105.233C90.1598 102.62 93.1931 100.753 96.2264 98.9798C102.433 95.4798 108.92 92.5398 115.64 90.1598C115.873 90.1598 115.78 89.8331 115.593 89.8798Z" fill="#180E25"/>
<path d="M96.9265 103.087C105.56 102.433 114.147 101.547 122.733 100.427C122.967 100.38 122.967 100.053 122.733 100.053C114.147 101.173 105.56 102.06 96.9265 102.713C96.6932 102.76 96.6932 103.087 96.9265 103.087Z" fill="#180E25"/>
<path d="M122.78 100.427C123.853 101.22 124.413 102.48 124.32 103.833C124.32 104.067 124.646 104.067 124.693 103.833C124.786 102.387 124.133 101.033 122.966 100.147C122.78 99.9598 122.64 100.287 122.78 100.427Z" fill="#180E25"/>
<path d="M126.046 103.786C127.446 104.486 130.993 105.793 132.113 104.02C133.186 102.293 130.433 102.2 129.64 101.593C129.453 101.453 129.22 101.686 129.406 101.826C129.64 102.013 129.873 102.153 130.153 102.246C130.386 102.34 130.666 102.386 130.946 102.433C131.553 102.62 131.6 102.573 131.646 103.32C131.926 103.88 131.74 104.206 131.133 104.206C130.853 104.393 130.526 104.486 130.153 104.44C129.733 104.486 129.313 104.393 128.94 104.346C128.006 104.206 127.12 103.926 126.233 103.46C126 103.413 125.813 103.693 126.046 103.786Z" fill="#180E25"/>
<path d="M126.887 96.9263C126.98 92.6797 131.413 89.7397 135.38 91.513C135.567 91.6063 135.753 91.2797 135.567 91.233C131.367 89.3663 126.653 92.3997 126.56 96.973C126.56 97.1597 126.887 97.1597 126.887 96.9263Z" fill="#180E25"/>
<path d="M126.7 92.1667C129.08 89.9267 132.066 88.6667 135.333 88.5267C135.566 88.5267 135.566 88.1533 135.333 88.1533C131.973 88.2933 128.893 89.6 126.466 91.8867C126.326 92.0733 126.56 92.3533 126.7 92.1667Z" fill="#180E25"/>
<path d="M126.466 90.9533C128.66 88.62 131.46 87.08 134.586 86.4733C134.82 86.4266 134.726 86.1 134.493 86.1466C131.273 86.7533 128.426 88.34 126.186 90.72C126.093 90.86 126.326 91.0933 126.466 90.9533Z" fill="#180E25"/>
<path d="M132.3 102.387C135.109 102.387 137.386 99.796 137.386 96.6001C137.386 93.4043 135.109 90.8135 132.3 90.8135C129.49 90.8135 127.213 93.4043 127.213 96.6001C127.213 99.796 129.49 102.387 132.3 102.387Z" stroke="#180E25" stroke-width="0.75" stroke-miterlimit="10"/>
<path d="M137.387 96.6001C137.247 95.9934 137.107 94.8734 137.433 93.6134C138.18 90.9534 140.56 89.7868 140.98 89.6001C141.307 89.4601 143.407 88.6201 145.507 89.7401C145.833 89.9268 147.373 90.7668 147.933 92.4001C148.12 92.9134 148.073 93.1468 147.98 95.6668C147.84 98.5134 147.84 98.6068 147.747 98.7934C146.533 100.52 139.953 97.7668 137.387 96.6001Z" fill="#180E25"/>
<path d="M140.047 91.7C139.58 91.98 138.647 92.6333 137.947 93.8933C137.713 94.3133 137.013 95.7133 137.293 97.5333C137.34 97.9067 137.713 99.9133 139.58 101.267C141.54 102.667 143.64 102.34 144.107 102.247C145.553 101.967 146.44 101.22 146.907 100.847C147.373 100.473 148.82 99.2133 149.24 97.02C149.66 94.9667 148.913 93.3333 148.54 92.5867C148.167 91.8867 147.28 90.3467 145.553 89.7867C143.687 89.18 141.54 89.9733 140.047 91.7Z" fill="white"/>
<path d="M172.574 100.007C173.227 100.24 174.16 100.613 175.234 101.127C177.38 102.107 180.6 103.647 183.867 106.68C184.987 107.707 187.087 109.853 189 113.073C190.54 115.687 191.287 117.927 191.614 118.907C191.987 120.073 192.22 121.1 192.36 121.893C192.267 122.36 192.034 123.107 191.52 123.807C191.334 124.087 190.68 124.88 189.327 125.58C188.3 126.093 186.807 126.513 183.867 126.373C180.927 126.233 178.734 125.58 178.08 125.393C175.467 124.647 171.314 123.387 166.6 120.167C163.754 118.253 161.84 116.247 158.06 112.327C155.68 109.853 152.74 106.587 149.614 102.667C149.66 102.107 149.847 100.893 150.78 99.7268C151.294 99.0735 151.854 98.7001 152.227 98.4668C154.887 99.7268 157.734 100.94 160.72 102.153C163.847 103.367 166.834 104.44 169.68 105.373C170.66 103.553 171.64 101.78 172.574 100.007Z" fill="#6A3EA1"/>
<path d="M151.947 100.333C152.227 99.6331 152.553 98.4665 152.46 97.0198C152.367 95.3865 151.76 94.2198 151.153 93.1931C150.36 91.7465 149.613 90.3465 147.933 89.4131C147.327 89.0865 145.74 88.1998 143.78 88.6198C141.26 89.1798 140.14 91.4665 140 91.7931C140.42 91.5598 141.727 90.8598 143.453 91.0465C145.367 91.2798 146.533 92.4465 146.907 92.8198C147.14 93.0531 147.98 93.9865 148.353 95.5265C148.493 96.0865 148.82 97.5331 148.12 99.1198C148.027 99.3065 147.653 100.146 146.813 100.893C145.367 102.2 143.64 102.386 142.893 102.433C142.193 102.48 141.587 102.433 141.167 102.386C141.54 102.806 142.38 103.506 143.593 103.786C146.253 104.393 148.353 102.34 148.493 102.153C149.24 102.48 150.033 102.76 150.78 103.086C151.247 102.106 151.62 101.22 151.947 100.333Z" fill="white"/>
<path d="M142.987 102.34C146.157 102.34 148.727 99.77 148.727 96.5999C148.727 93.4298 146.157 90.8599 142.987 90.8599C139.817 90.8599 137.247 93.4298 137.247 96.5999C137.247 99.77 139.817 102.34 142.987 102.34Z" stroke="#180E25" stroke-width="0.75" stroke-miterlimit="10"/>
<path d="M141.167 102.386C143.033 104.766 146.114 103.88 148.354 102.62C148.54 102.526 148.354 102.2 148.167 102.34C146.067 103.553 143.173 104.44 141.4 102.2C141.26 101.966 141.027 102.246 141.167 102.386Z" fill="#180E25"/>
<path d="M140.093 90.7197C140.327 90.7197 140.327 90.3464 140.093 90.3464C139.86 90.3464 139.86 90.7197 140.093 90.7197Z" fill="#180E25"/>
<path d="M140.467 90.9997C141.914 89.6931 144.06 89.7397 145.88 89.9731C146.114 90.0197 146.114 89.6464 145.88 89.5997C143.967 89.3664 141.727 89.3664 140.234 90.7197C140.047 90.9064 140.28 91.1397 140.467 90.9997Z" fill="#180E25"/>
<path d="M142.987 89.1333C145.04 88.76 147.047 89.46 148.447 91C148.587 91.1867 148.867 90.9067 148.68 90.7667C147.187 89.1333 145.087 88.4333 142.893 88.8066C142.66 88.8533 142.753 89.18 142.987 89.1333Z" fill="#180E25"/>
<path d="M148.213 90.0202C150.687 91.9802 152.18 94.7335 152.367 97.9068C152.367 98.1402 152.74 98.1402 152.74 97.9068C152.553 94.6868 151.06 91.7935 148.493 89.7868C148.307 89.6468 148.027 89.8802 148.213 90.0202Z" fill="#180E25"/>
<path d="M152.134 98.28C150.64 99.2133 149.66 100.707 149.474 102.433C149.427 102.667 149.8 102.667 149.847 102.433C150.034 100.8 150.967 99.4 152.367 98.56C152.46 98.4667 152.32 98.14 152.134 98.28Z" fill="#180E25"/>
<path d="M152.553 98.6535C159.227 101.967 166.133 104.674 173.273 106.867C173.507 106.914 173.6 106.587 173.367 106.54C166.273 104.347 159.367 101.64 152.74 98.3735C152.553 98.2802 152.367 98.5602 152.553 98.6535Z" fill="#180E25"/>
<path d="M172.387 100.333C182.327 103.18 190.027 111.487 192.127 121.613C192.174 121.847 192.5 121.753 192.454 121.52C190.307 111.3 182.514 102.9 172.48 100.007C172.294 99.9133 172.2 100.24 172.387 100.333Z" fill="#180E25"/>
<path d="M149.427 102.713C155.353 110.553 162.68 118.16 171.453 122.826C176.4 125.44 190.4 130.48 192.547 121.893C192.593 121.66 192.267 121.566 192.22 121.8C190.867 127.26 183.54 126.513 179.293 125.486C175.373 124.553 171.733 122.78 168.373 120.586C161.14 115.873 154.933 109.433 149.753 102.573C149.613 102.34 149.287 102.526 149.427 102.713Z" fill="#180E25"/>
<path d="M95.8063 168.701L86.2397 168.141L84.0463 148.821H98.2796L95.8063 168.701Z" fill="#F8C715"/>
<path d="M91.1866 150.781C95.1041 150.781 98.2799 150.028 98.2799 149.101C98.2799 148.173 95.1041 147.421 91.1866 147.421C87.2691 147.421 84.0933 148.173 84.0933 149.101C84.0933 150.028 87.2691 150.781 91.1866 150.781Z" fill="white" stroke="#180E25" stroke-width="0.75" stroke-miterlimit="10"/>
<path d="M91.14 149.567C91.0933 144.667 93.4733 139.393 90.3466 134.913C89.8333 134.167 88.62 134.867 89.1333 135.613C92.0733 139.767 89.6933 144.947 89.74 149.567C89.74 150.453 91.14 150.453 91.14 149.567Z" fill="#725A03"/>
<path d="M93.3329 130.154C93.4262 133.28 91.5129 136.827 90.4862 139.72C90.2062 140.56 91.5595 140.934 91.8395 140.094C92.9129 136.967 94.8262 133.467 94.7329 130.154C94.7329 129.267 93.3329 129.267 93.3329 130.154Z" fill="#725A03"/>
<path d="M85.3531 137.294C86.9398 139.114 86.6598 141.494 87.3131 143.64C87.7331 145.134 88.5731 146.347 89.6931 147.327C90.3464 147.934 91.3731 146.954 90.6731 146.347C87.5931 143.64 88.8998 139.254 86.3331 136.314C85.7264 135.614 84.7464 136.64 85.3531 137.294Z" fill="#725A03"/>
<path d="M153.207 187.974C153.627 191.754 153.767 196.28 153.253 201.367C152.367 210.654 149.613 218.027 147.233 223.067C150.827 224.607 154.84 226.054 159.227 227.36C167.72 229.88 175.513 231.094 182.093 231.654C184.333 226.8 186.76 220.454 188.393 212.8C189.793 206.174 190.26 200.2 190.353 195.347C187.133 194.694 183.913 193.994 180.693 193.34C181.16 196.747 179.667 199.967 176.96 201.647C174.86 202.907 172.2 203.14 170.1 202.207C166.46 200.62 164.36 195.72 165.76 190.447C161.607 189.654 157.407 188.814 153.207 187.974Z" fill="#F8C715"/>
<path d="M74.993 172.433C75.413 175.093 75.8797 179.06 76.0197 183.867C76.2997 194.553 74.573 200.62 73.8263 208.367C73.2663 214.34 73.1263 222.833 75.1797 233.38C77.513 233.8 81.1063 234.687 85.073 236.693C96.413 242.433 98.093 250.927 105.98 254.567C110.18 256.527 117.086 257.46 128.52 252.093C128.893 249.947 129.5 246.68 130.433 242.76C133 231.887 135.893 224.327 136.78 221.853C139.253 214.853 141.26 203.56 138.693 185.127C117.46 180.88 96.2263 176.633 74.993 172.433Z" fill="white" stroke="#180E25" stroke-width="0.75" stroke-miterlimit="10"/>
<path d="M35.9801 206.5C34.6267 209.767 32.9934 214.76 32.8067 220.92C32.6201 227.78 34.3467 231.56 35.0934 236.507C35.9334 242.153 35.6067 250.413 30.0067 261.473C33.4601 262.267 36.9601 263.153 40.5067 264.04C52.8267 267.12 64.6801 270.48 76.0201 274.027C78.4001 266.047 79.0067 259.513 79.1001 255.22C79.4267 242.713 76.1601 235.013 79.9401 224C81.0601 220.733 82.4601 218.307 83.2534 216.953C67.5267 213.5 51.7534 210 35.9801 206.5Z" fill="#F8C715"/>
<path d="M98.1863 197.821C98.6997 203.421 99.1197 209.254 99.3997 215.227C100.146 232.447 99.633 248.501 98.2797 263.107C100.426 263.154 103.553 263.294 107.38 263.947C116.853 265.487 122.78 268.661 126.933 270.294C132.86 272.627 141.913 274.494 155.26 271.927C156.1 262.921 155.68 255.594 155.073 250.274C153.953 240.754 152.133 236.974 152.226 229.554C152.366 221.201 154.84 214.294 157.22 209.347C137.526 205.521 117.88 201.647 98.1863 197.821Z" fill="white" stroke="#180E25" stroke-width="0.75" stroke-miterlimit="10"/>
<path d="M72.6132 166.507L11.5266 214.573" stroke="#180E25" stroke-width="3" stroke-miterlimit="10"/>
<path d="M212.94 192.78L148.353 256.854" stroke="#180E25" stroke-width="3" stroke-miterlimit="10"/>
<path d="M24.8734 204.027L168.98 236.087" stroke="#180E25" stroke-miterlimit="10"/>
<path d="M45.7796 187.6L189.84 215.693" stroke="#180E25" stroke-miterlimit="10"/>
<path d="M67.0599 170.847L207.013 198.66" stroke="#180E25" stroke-miterlimit="10"/>
<path d="M43.4933 205.1C43.0733 206.78 42.6533 208.46 42.2333 210.094C42 210.98 43.3533 211.354 43.5866 210.467C44.0066 208.787 44.4266 207.107 44.8466 205.474C45.0333 204.587 43.6799 204.214 43.4933 205.1Z" fill="#180E25"/>
<path d="M43.4468 207.854C44.0068 208.274 44.6135 208.74 45.1735 209.16C45.4535 209.394 45.9668 209.207 46.1535 208.927C46.3401 208.554 46.2001 208.18 45.9201 207.947C45.3601 207.527 44.7535 207.06 44.1935 206.64C43.9135 206.407 43.4001 206.594 43.2135 206.874C42.9801 207.247 43.1201 207.62 43.4468 207.854Z" fill="#180E25"/>
<path d="M65.94 209.254C65.1934 211.027 64.4 212.754 63.6533 214.527C63.28 215.367 64.4933 216.067 64.8667 215.227C65.6133 213.454 66.4067 211.727 67.1533 209.954C67.48 209.114 66.2667 208.414 65.94 209.254Z" fill="#180E25"/>
<path d="M64.9135 212.894C65.6135 213.407 66.3601 213.92 67.0601 214.434C67.8068 214.947 68.5068 213.734 67.7601 213.22C67.0601 212.707 66.3135 212.194 65.6135 211.68C64.9135 211.167 64.2135 212.38 64.9135 212.894Z" fill="#180E25"/>
<path d="M85.68 171.733C85.54 172.9 85.4 174.113 85.26 175.28C85.1666 176.166 86.5666 176.166 86.66 175.28C86.8 174.113 86.94 172.9 87.08 171.733C87.1733 170.846 85.7733 170.846 85.68 171.733Z" fill="#180E25"/>
<path d="M118.206 178.827C118.206 180.32 118.02 181.72 117.553 183.167C117.273 184.007 118.626 184.38 118.906 183.54C119.373 182 119.606 180.46 119.606 178.827C119.56 177.94 118.16 177.94 118.206 178.827Z" fill="#180E25"/>
<path d="M116.293 199.314C115.733 200.714 115.5 202.207 115.593 203.7C115.64 204.587 117.04 204.587 116.993 203.7C116.9 202.3 117.133 200.994 117.6 199.687C117.973 198.847 116.62 198.474 116.293 199.314Z" fill="#180E25"/>
<path d="M144.247 205.427C144.013 206.594 143.827 207.807 143.593 208.974C143.453 209.86 144.76 210.234 144.947 209.347C145.18 208.18 145.367 206.967 145.6 205.8C145.787 204.914 144.433 204.54 144.247 205.427Z" fill="#180E25"/>
<path d="M159.133 187.88C159.133 188.3 159.04 188.673 158.713 189C158.06 189.653 159.04 190.633 159.693 189.98C160.253 189.42 160.58 188.673 160.533 187.88C160.486 186.993 159.086 186.993 159.133 187.88Z" fill="#180E25"/>
<path d="M186.573 193.153C186.387 193.9 186.247 194.693 186.06 195.44C185.873 196.327 187.227 196.7 187.413 195.813C187.6 195.067 187.74 194.273 187.927 193.527C188.113 192.64 186.76 192.267 186.573 193.153Z" fill="#180E25"/>
</svg>
