<!-- <svg xmlns="http://www.w3.org/2000/svg" viewBox="0 0 261.76 226.69"  xmlns:v="https://vecta.io/nano"><path d="M161.096.001l-30.225 52.351L100.647.001H-.005l130.877 226.688L261.749.001z" fill="#41b883"/><path d="M161.096.001l-30.225 52.351L100.647.001H52.346l78.526 136.01L209.398.001z" fill="#34495e"/></svg> -->

<svg width="84" height="24" viewBox="0 0 84 24" fill="none" xmlns="http://www.w3.org/2000/svg">
<path d="M29.5682 9.39205V7.36364H39.125V9.39205H35.5625V19H33.1307V9.39205H29.5682ZM41.9545 19.1648C41.3977 19.1648 40.9015 19.0682 40.4659 18.875C40.0303 18.678 39.6856 18.3883 39.4318 18.0057C39.1818 17.6193 39.0568 17.1383 39.0568 16.5625C39.0568 16.0777 39.1458 15.6705 39.3239 15.3409C39.5019 15.0114 39.7443 14.7462 40.0511 14.5455C40.358 14.3447 40.7064 14.1932 41.0966 14.0909C41.4905 13.9886 41.9034 13.9167 42.3352 13.875C42.8428 13.822 43.2519 13.7727 43.5625 13.7273C43.8731 13.678 44.0985 13.6061 44.2386 13.5114C44.3788 13.4167 44.4489 13.2765 44.4489 13.0909V13.0568C44.4489 12.697 44.3352 12.4186 44.108 12.2216C43.8845 12.0246 43.5663 11.9261 43.1534 11.9261C42.7178 11.9261 42.3712 12.0227 42.1136 12.2159C41.8561 12.4053 41.6856 12.6439 41.6023 12.9318L39.3636 12.75C39.4773 12.2197 39.7008 11.7614 40.0341 11.375C40.3674 10.9848 40.7973 10.6856 41.3239 10.4773C41.8542 10.2652 42.4678 10.1591 43.1648 10.1591C43.6496 10.1591 44.1136 10.2159 44.5568 10.3295C45.0038 10.4432 45.3996 10.6193 45.7443 10.858C46.0928 11.0966 46.3674 11.4034 46.5682 11.7784C46.7689 12.1496 46.8693 12.5947 46.8693 13.1136V19H44.5739V17.7898H44.5057C44.3655 18.0625 44.178 18.303 43.9432 18.5114C43.7083 18.7159 43.4261 18.8769 43.0966 18.9943C42.767 19.108 42.3864 19.1648 41.9545 19.1648ZM42.6477 17.4943C43.0038 17.4943 43.3182 17.4242 43.5909 17.2841C43.8636 17.1402 44.0777 16.947 44.233 16.7045C44.3883 16.4621 44.4659 16.1875 44.4659 15.8807V14.9545C44.3902 15.0038 44.286 15.0492 44.1534 15.0909C44.0246 15.1288 43.8788 15.1648 43.7159 15.1989C43.553 15.2292 43.3902 15.2576 43.2273 15.2841C43.0644 15.3068 42.9167 15.3277 42.7841 15.3466C42.5 15.3883 42.2519 15.4545 42.0398 15.5455C41.8277 15.6364 41.6629 15.7595 41.5455 15.9148C41.428 16.0663 41.3693 16.2557 41.3693 16.483C41.3693 16.8125 41.4886 17.0644 41.7273 17.2386C41.9697 17.4091 42.2765 17.4943 42.6477 17.4943ZM56.0085 12.7614L53.7926 12.8977C53.7547 12.7083 53.6733 12.5379 53.5483 12.3864C53.4233 12.2311 53.2585 12.108 53.054 12.017C52.8532 11.9223 52.6127 11.875 52.3324 11.875C51.9574 11.875 51.6411 11.9545 51.3835 12.1136C51.1259 12.2689 50.9972 12.4773 50.9972 12.7386C50.9972 12.947 51.0805 13.1231 51.2472 13.267C51.4138 13.411 51.6998 13.5265 52.1051 13.6136L53.6847 13.9318C54.5331 14.1061 55.1657 14.3864 55.5824 14.7727C55.9991 15.1591 56.2074 15.6667 56.2074 16.2955C56.2074 16.8674 56.0388 17.3693 55.7017 17.8011C55.3684 18.233 54.91 18.5701 54.3267 18.8125C53.7472 19.0511 53.0786 19.1705 52.321 19.1705C51.1657 19.1705 50.2453 18.9299 49.5597 18.4489C48.8778 17.964 48.4782 17.3049 48.3608 16.4716L50.7415 16.3466C50.8134 16.6989 50.9877 16.9678 51.2642 17.1534C51.5407 17.3352 51.8949 17.4261 52.3267 17.4261C52.7509 17.4261 53.0919 17.3447 53.3494 17.1818C53.6108 17.0152 53.7434 16.8011 53.7472 16.5398C53.7434 16.3201 53.6506 16.1402 53.4688 16C53.2869 15.8561 53.0066 15.7462 52.6278 15.6705L51.1165 15.3693C50.2642 15.1989 49.6297 14.9034 49.2131 14.483C48.8002 14.0625 48.5938 13.5265 48.5938 12.875C48.5938 12.3144 48.7453 11.8314 49.0483 11.4261C49.3551 11.0208 49.785 10.7083 50.3381 10.4886C50.8949 10.2689 51.5464 10.1591 52.2926 10.1591C53.3949 10.1591 54.2623 10.392 54.8949 10.858C55.5313 11.3239 55.9025 11.9583 56.0085 12.7614ZM59.9247 16.4886L59.9304 13.5852H60.2827L63.0781 10.2727H65.8565L62.1009 14.6591H61.527L59.9247 16.4886ZM57.7315 19V7.36364H60.152V19H57.7315ZM63.1861 19L60.6179 15.1989L62.2315 13.4886L66.0213 19H63.1861ZM72.1847 13.2614V15.1818H66.8778V13.2614H72.1847ZM74.2472 19V10.2727H76.6676V19H74.2472ZM75.4631 9.14773C75.1032 9.14773 74.7945 9.02841 74.5369 8.78977C74.2831 8.54735 74.1562 8.25758 74.1562 7.92045C74.1562 7.58712 74.2831 7.30114 74.5369 7.0625C74.7945 6.82008 75.1032 6.69886 75.4631 6.69886C75.8229 6.69886 76.1297 6.82008 76.3835 7.0625C76.6411 7.30114 76.7699 7.58712 76.7699 7.92045C76.7699 8.25758 76.6411 8.54735 76.3835 8.78977C76.1297 9.02841 75.8229 9.14773 75.4631 9.14773ZM83.2486 10.2727V12.0909H77.9929V10.2727H83.2486ZM79.1861 8.18182H81.6065V16.3182C81.6065 16.5417 81.6406 16.7159 81.7088 16.8409C81.777 16.9621 81.8717 17.0473 81.9929 17.0966C82.1179 17.1458 82.2618 17.1705 82.4247 17.1705C82.5384 17.1705 82.652 17.161 82.7656 17.142C82.8793 17.1193 82.9664 17.1023 83.027 17.0909L83.4077 18.892C83.2865 18.9299 83.116 18.9735 82.8963 19.0227C82.6766 19.0758 82.4096 19.108 82.0952 19.1193C81.5118 19.142 81.0005 19.0644 80.5611 18.8864C80.1255 18.7083 79.7865 18.4318 79.544 18.0568C79.3016 17.6818 79.1823 17.2083 79.1861 16.6364V8.18182Z" fill="#6A3EA1"/>
<rect width="24" height="24" rx="12" fill="#F8C715"/>
<path d="M10.2477 15.75H13.7524M12 5.25V6M16.773 7.22703L16.2427 7.75736M18.7501 12H18.0001M6.00006 12H5.25006M7.75738 7.75736L7.22705 7.22703M9.34837 14.6517C7.8839 13.1872 7.8839 10.8128 9.34837 9.34837C10.8128 7.8839 13.1872 7.8839 14.6517 9.34837C16.1161 10.8128 16.1161 13.1872 14.6517 14.6517L14.2413 15.062C13.7667 15.5367 13.5 16.1804 13.5 16.8517V17.25C13.5 18.0784 12.8284 18.75 12 18.75C11.1716 18.75 10.5 18.0784 10.5 17.25V16.8517C10.5 16.1804 10.2334 15.5367 9.75869 15.062L9.34837 14.6517Z" stroke="white" stroke-linecap="round" stroke-linejoin="round"/>
</svg>
