<svg width="102" height="23" viewBox="0 0 102 23" fill="none" xmlns="http://www.w3.org/2000/svg">
<path d="M27 7.67107V4.90615H40.3129V7.67107H35.3503V20.7677H31.9627V7.67107H27Z" fill="#6A3EA1"/>
<path d="M44.2546 20.9923C43.4789 20.9923 42.7877 20.8606 42.1809 20.5973C41.574 20.3288 41.0939 19.9338 40.7403 19.4123C40.3921 18.8856 40.218 18.2299 40.218 17.4451C40.218 16.7842 40.342 16.2292 40.59 15.78C40.838 15.3308 41.1757 14.9693 41.6031 14.6957C42.0305 14.422 42.5159 14.2155 43.0594 14.0761C43.6082 13.9367 44.1833 13.8386 44.7849 13.7818C45.4919 13.7095 46.0618 13.6424 46.4945 13.5804C46.9272 13.5133 47.2411 13.4152 47.4364 13.2861C47.6316 13.157 47.7292 12.966 47.7292 12.713V12.6665C47.7292 12.176 47.5709 11.7965 47.2543 11.528C46.943 11.2595 46.4998 11.1253 45.9246 11.1253C45.3178 11.1253 44.835 11.2569 44.4762 11.5203C44.1174 11.7784 43.8799 12.1037 43.7638 12.4961L40.6454 12.2483C40.8037 11.5254 41.115 10.9007 41.5793 10.374C42.0437 9.84222 42.6426 9.43432 43.376 9.15034C44.1147 8.8612 44.9696 8.71663 45.9405 8.71663C46.6159 8.71663 47.2622 8.79408 47.8796 8.94898C48.5023 9.10387 49.0537 9.34396 49.5338 9.66925C50.0193 9.99453 50.4018 10.4128 50.6815 10.9239C50.9612 11.4299 51.101 12.0366 51.101 12.744V20.7677H47.9034V19.118H47.8084C47.6131 19.4897 47.352 19.8176 47.0248 20.1016C46.6976 20.3804 46.3045 20.5998 45.8455 20.7599C45.3864 20.9148 44.8561 20.9923 44.2546 20.9923ZM45.2202 18.7153C45.7162 18.7153 46.1542 18.6197 46.5341 18.4287C46.914 18.2325 47.2121 17.9692 47.4285 17.6387C47.6448 17.3083 47.753 16.9339 47.753 16.5157V15.2533C47.6474 15.3204 47.5023 15.3824 47.3177 15.4392C47.1382 15.4908 46.9351 15.5399 46.7082 15.5863C46.4813 15.6276 46.2544 15.6664 46.0275 15.7025C45.8006 15.7335 45.5948 15.7619 45.4102 15.7877C45.0144 15.8445 44.6688 15.9349 44.3733 16.0588C44.0778 16.1827 43.8483 16.3505 43.6847 16.5622C43.5211 16.7687 43.4393 17.0269 43.4393 17.3367C43.4393 17.7859 43.6055 18.1292 43.938 18.3667C44.2757 18.5991 44.7031 18.7153 45.2202 18.7153Z" fill="#6A3EA1"/>
<path d="M63.8322 12.2638L60.7454 12.4497C60.6926 12.1915 60.5791 11.9592 60.405 11.7526C60.2309 11.5409 60.0013 11.3731 59.7164 11.2492C59.4367 11.1201 59.1017 11.0556 58.7112 11.0556C58.1888 11.0556 57.7482 11.164 57.3894 11.3809C57.0306 11.5926 56.8512 11.8765 56.8512 12.2328C56.8512 12.5168 56.9673 12.7569 57.1995 12.9531C57.4316 13.1493 57.83 13.3068 58.3946 13.4255L60.595 13.8592C61.7769 14.0967 62.6581 14.4788 63.2386 15.0055C63.819 15.5321 64.1092 16.224 64.1092 17.0811C64.1092 17.8607 63.8744 18.5449 63.4048 19.1335C62.9404 19.7221 62.302 20.1816 61.4894 20.5121C60.682 20.8374 59.7507 21 58.6954 21C57.086 21 55.8038 20.6721 54.8487 20.0164C53.8989 19.3555 53.3422 18.4571 53.1787 17.3212L56.495 17.1508C56.5953 17.631 56.838 17.9976 57.2232 18.2506C57.6084 18.4984 58.1018 18.6223 58.7033 18.6223C59.2943 18.6223 59.7692 18.5113 60.128 18.2893C60.4921 18.0621 60.6768 17.7704 60.682 17.4141C60.6768 17.1147 60.5475 16.8694 60.2942 16.6784C60.0409 16.4822 59.6505 16.3324 59.1228 16.2292L57.0174 15.8187C55.8302 15.5863 54.9463 15.1836 54.3659 14.6105C53.7908 14.0374 53.5032 13.3068 53.5032 12.4187C53.5032 11.6545 53.7142 10.9962 54.1364 10.4437C54.5638 9.89127 55.1627 9.4653 55.9331 9.16583C56.7087 8.86636 57.6163 8.71663 58.6558 8.71663C60.1913 8.71663 61.3997 9.03417 62.2808 9.66925C63.1673 10.3043 63.6844 11.1692 63.8322 12.2638Z" fill="#6A3EA1"/>
<path d="M69.2876 17.3444L69.2955 13.3868H69.7862L73.6803 8.87153H77.5507L72.319 14.8506H71.5196L69.2876 17.3444ZM66.2324 20.7677V4.90615H69.6041V20.7677H66.2324ZM73.8307 20.7677L70.2532 15.5863L72.501 13.2551L77.7803 20.7677H73.8307Z" fill="#6A3EA1"/>
<path d="M86.366 12.9453V15.5631H78.9735V12.9453H86.366Z" fill="#6A3EA1"/>
<path d="M89.2391 20.7677V8.87153H92.6109V20.7677H89.2391ZM90.9329 7.33804C90.4317 7.33804 90.0016 7.1754 89.6428 6.85011C89.2893 6.51967 89.1125 6.12468 89.1125 5.66515C89.1125 5.21078 89.2893 4.82096 89.6428 4.49567C90.0016 4.16522 90.4317 4 90.9329 4C91.4342 4 91.8616 4.16522 92.2152 4.49567C92.574 4.82096 92.7534 5.21078 92.7534 5.66515C92.7534 6.12468 92.574 6.51967 92.2152 6.85011C91.8616 7.1754 91.4342 7.33804 90.9329 7.33804Z" fill="#6A3EA1"/>
<path d="M101.778 8.87153V11.3499H94.4571V8.87153H101.778ZM96.1192 6.02141H99.491V17.1121C99.491 17.4167 99.5385 17.6542 99.6334 17.8246C99.7284 17.9898 99.8603 18.106 100.029 18.1731C100.203 18.2402 100.404 18.2738 100.631 18.2738C100.789 18.2738 100.947 18.2609 101.106 18.2351C101.264 18.2041 101.385 18.1809 101.47 18.1654L102 20.6205C101.831 20.6721 101.594 20.7315 101.288 20.7986C100.982 20.8709 100.61 20.9148 100.172 20.9303C99.359 20.9613 98.6467 20.8554 98.0346 20.6128C97.4278 20.3701 96.9555 19.9932 96.6178 19.482C96.2801 18.9708 96.1139 18.3254 96.1192 17.5458V6.02141Z" fill="#6A3EA1"/>
<ellipse cx="9.5" cy="13" rx="9.5" ry="10" fill="#F8C715"/>
<path d="M4 12L9.42857 18L23 3" stroke="#6A3EA1" stroke-width="3" stroke-linecap="square"/>
</svg>
